<svg width="15" height="15" viewBox="0 0 15 15" fill="none" xmlns="http://www.w3.org/2000/svg">
<path d="M7.5 0C3.35795 0 0 3.35795 0 7.5C0 11.6421 3.35795 15 7.5 15C11.6421 15 15 11.6421 15 7.5C15 3.35795 11.6421 0 7.5 0ZM7.5 13.75C4.0483 13.75 1.25001 10.9517 1.25001 7.5C1.25001 4.0483 4.0483 1.25001 7.5 1.25001C10.9517 1.25001 13.75 4.0483 13.75 7.5C13.75 10.9517 10.9517 13.75 7.5 13.75Z" fill="black"/>
<path d="M6.69194 3.93305C6.44787 3.68898 6.05213 3.68898 5.80805 3.93305C5.56398 4.17713 5.56398 4.57287 5.80805 4.81694L8.49112 7.50001L5.80805 10.1831C5.56398 10.4271 5.56398 10.8229 5.80805 11.067C6.05213 11.311 6.44787 11.311 6.69194 11.067L9.81695 7.94195C10.061 7.69788 10.061 7.30213 9.81695 7.05806L6.69194 3.93305Z" fill="black"/>
</svg>
