<svg width="10" height="10" viewBox="0 0 10 10" fill="none" xmlns="http://www.w3.org/2000/svg">
<path d="M8.82812 0.78125H8.35938V0H7.57812V0.78125H2.42188V0H1.64062V0.78125H1.17188C0.525703 0.78125 0 1.30695 0 1.95312V8.82812C0 9.4743 0.525703 10 1.17188 10H8.82812C9.4743 10 10 9.4743 10 8.82812V1.95312C10 1.30695 9.4743 0.78125 8.82812 0.78125ZM9.21875 8.82812C9.21875 9.04352 9.04352 9.21875 8.82812 9.21875H1.17188C0.956484 9.21875 0.78125 9.04352 0.78125 8.82812V3.67188H9.21875V8.82812ZM9.21875 2.89062H0.78125V1.95312C0.78125 1.73773 0.956484 1.5625 1.17188 1.5625H1.64062V2.34375H2.42188V1.5625H7.57812V2.34375H8.35938V1.5625H8.82812C9.04352 1.5625 9.21875 1.73773 9.21875 1.95312V2.89062Z" fill="#FF601F"/>
<path d="M6.95312 6.05469H6.17188V6.83594H6.95312V6.05469Z" fill="#FF601F"/>
</svg>
