<svg width="50" height="50" viewBox="0 0 50 50" fill="none" xmlns="http://www.w3.org/2000/svg">
<g clip-path="url(#clip0_41_651)">
<path d="M49.7076 20.924C50.3066 19.3539 49.9759 17.5074 48.7128 16.2444L33.7547 1.28625C32.0412 -0.427222 29.2531 -0.427026 27.5398 1.28625L10.7233 18.1029H4.39453C1.97139 18.1029 0 20.0742 0 22.4974V45.6045C0 48.0277 1.97139 49.999 4.39453 49.999H45.6055C48.0286 49.999 50 48.0277 50 45.6045V22.4974C50 21.943 49.8958 21.4128 49.7076 20.924ZM46.526 18.2006C46.229 18.137 45.9212 18.1029 45.6055 18.1029H42.4313L44.4298 16.1044L46.526 18.2006ZM42.3582 14.0328L38.2882 18.1029H34.1448L40.2865 11.9612L42.3582 14.0328ZM29.6115 3.35784C29.8972 3.07229 30.2723 2.92942 30.6474 2.92942C31.0225 2.92942 31.3976 3.07229 31.6831 3.35784L38.2149 9.88967L30.0017 18.103H14.8664L29.6115 3.35784ZM47.0703 45.6045C47.0703 46.4122 46.4132 47.0694 45.6055 47.0694H4.39453C3.58682 47.0694 2.92969 46.4122 2.92969 45.6045V22.4974C2.92969 21.6897 3.58682 21.0325 4.39453 21.0325H45.6055C46.4132 21.0325 47.0703 21.6897 47.0703 22.4974V45.6045Z" fill="black"/>
<path d="M5.76172 39.7056H12.5882V42.6353H5.76172V39.7056Z" fill="black"/>
<path d="M16.3115 39.7056H23.1379V42.6353H16.3115V39.7056Z" fill="black"/>
<path d="M26.8618 39.7056H33.6882V42.6353H26.8618V39.7056Z" fill="black"/>
<path d="M37.4121 39.7056H44.2386V42.6353H37.4121V39.7056Z" fill="black"/>
<path d="M13.3073 24.9387H8.30078C6.95459 24.9387 5.85938 26.0339 5.85938 27.3801V31.2864C5.85938 32.6326 6.95459 33.7278 8.30078 33.7278H13.3073C14.6535 33.7278 15.7487 32.6326 15.7487 31.2864V27.3801C15.7487 26.0339 14.6535 24.9387 13.3073 24.9387ZM12.819 30.7981H8.78906V27.8684H12.819V30.7981Z" fill="black"/>
</g>
<defs>
<clipPath id="clip0_41_651">
<rect width="50" height="50" fill="white"/>
</clipPath>
</defs>
</svg>
