<svg width="50" height="50" viewBox="0 0 50 50" fill="none" xmlns="http://www.w3.org/2000/svg">
<g clip-path="url(#clip0_41_645)">
<path d="M48.7498 21.65C48.7483 21.6488 48.7472 21.6473 48.746 21.6462L28.3499 1.25084C27.4806 0.381089 26.3247 -0.0976562 25.0952 -0.0976562C23.8657 -0.0976562 22.7099 0.381089 21.8401 1.25084L1.45474 21.6359C1.44787 21.6427 1.44062 21.65 1.43414 21.6568C-0.351146 23.4524 -0.348094 26.3657 1.44291 28.1567C2.26116 28.9754 3.34149 29.4491 4.49696 29.4991C4.54426 29.5037 4.59157 29.506 4.63925 29.506H5.45178V44.5153C5.45178 47.4858 7.86878 49.9024 10.8393 49.9024H18.8189C19.628 49.9024 20.2837 49.2463 20.2837 48.4376V36.67C20.2837 35.3146 21.3866 34.2122 22.7419 34.2122H27.4485C28.8039 34.2122 29.9063 35.3146 29.9063 36.67V48.4376C29.9063 49.2463 30.5621 49.9024 31.3712 49.9024H39.3508C42.3217 49.9024 44.7383 47.4858 44.7383 44.5153V29.506H45.4921C46.7212 29.506 47.877 29.0272 48.7472 28.1571C50.5401 26.3634 50.5408 23.4448 48.7498 21.65ZM46.6754 26.0857C46.3591 26.402 45.9388 26.5763 45.4921 26.5763H43.2734C42.4643 26.5763 41.8086 27.232 41.8086 28.0411V44.5153C41.8086 45.8703 40.7061 46.9727 39.3508 46.9727H32.836V36.67C32.836 33.6995 30.4194 31.2825 27.4485 31.2825H22.7419C19.771 31.2825 17.354 33.6995 17.354 36.67V46.9727H10.8393C9.48431 46.9727 8.38148 45.8703 8.38148 44.5153V28.0411C8.38148 27.232 7.72573 26.5763 6.91663 26.5763H4.73614C4.71326 26.5748 4.69075 26.5736 4.66748 26.5732C4.23108 26.5656 3.82176 26.3924 3.51506 26.0853C2.86274 25.433 2.86274 24.3714 3.51506 23.7187C3.51544 23.7187 3.51544 23.7183 3.51582 23.7179L3.51696 23.7168L23.9123 3.32223C24.2281 3.00599 24.6481 2.83204 25.0952 2.83204C25.5419 2.83204 25.9619 3.00599 26.2782 3.32223L46.6689 23.7126C46.672 23.7156 46.6754 23.7187 46.6784 23.7217C47.3273 24.3752 47.3262 25.4345 46.6754 26.0857Z" fill="black"/>
</g>
<defs>
<clipPath id="clip0_41_645">
<rect width="50" height="50" fill="white"/>
</clipPath>
</defs>
</svg>
