<svg width="50" height="50" viewBox="0 0 50 50" fill="none" xmlns="http://www.w3.org/2000/svg">
<path d="M42.6758 26.1867H37.7814C37.1153 26.1867 36.4704 26.2777 35.8566 26.4451C34.6459 24.065 32.174 22.4297 29.3257 22.4297H20.6743C17.826 22.4297 15.3541 24.065 14.1434 26.4451C13.5296 26.2777 12.8847 26.1867 12.2186 26.1867H7.32422C3.28564 26.1867 0 29.4724 0 33.5109V41.335C0 43.7581 1.97139 45.7295 4.39453 45.7295H45.6055C48.0286 45.7295 50 43.7581 50 41.335V33.5109C50 29.4724 46.7144 26.1867 42.6758 26.1867ZM13.3501 29.7541V42.7999H4.39453C3.58682 42.7999 2.92969 42.1428 2.92969 41.3351V33.511C2.92969 31.0879 4.90107 29.1165 7.32422 29.1165H12.2186C12.6162 29.1165 13.0013 29.1705 13.3679 29.27C13.3573 29.4303 13.3501 29.5914 13.3501 29.7541ZM33.7202 42.7999H16.2798V29.754C16.2798 27.3309 18.2512 25.3595 20.6743 25.3595H29.3257C31.7488 25.3595 33.7202 27.3309 33.7202 29.754V42.7999ZM47.0703 41.3351C47.0703 42.1428 46.4132 42.7999 45.6055 42.7999H36.6499V29.754C36.6499 29.5912 36.6427 29.4301 36.6321 29.2699C36.9987 29.1705 37.3838 29.1164 37.7814 29.1164H42.6758C45.0989 29.1164 47.0703 31.0878 47.0703 33.5109V41.3351Z" fill="black"/>
<path d="M9.77134 12.3538C6.18257 12.3538 3.26294 15.2734 3.26294 18.8622C3.26284 22.4509 6.18257 25.3706 9.77134 25.3706C13.36 25.3706 16.2797 22.4509 16.2797 18.8622C16.2797 15.2734 13.3601 12.3538 9.77134 12.3538ZM9.77124 22.4409C7.7979 22.4409 6.19253 20.8355 6.19253 18.8622C6.19253 16.8888 7.7979 15.2834 9.77124 15.2834C11.7446 15.2834 13.35 16.8888 13.35 18.8622C13.35 20.8355 11.7446 22.4409 9.77124 22.4409Z" fill="black"/>
<path d="M25 4.27051C20.2055 4.27051 16.3049 8.17109 16.3049 12.9656C16.3049 17.7602 20.2055 21.6607 25 21.6607C29.7946 21.6607 33.6952 17.7602 33.6952 12.9656C33.6952 8.17119 29.7946 4.27051 25 4.27051ZM25 18.7311C21.8209 18.7311 19.2346 16.1447 19.2346 12.9656C19.2346 9.78662 21.8209 7.20019 25 7.20019C28.1791 7.20019 30.7655 9.78652 30.7655 12.9656C30.7655 16.1447 28.1791 18.7311 25 18.7311Z" fill="black"/>
<path d="M40.2286 12.3538C36.6399 12.3538 33.7202 15.2734 33.7202 18.8622C33.7203 22.4509 36.6399 25.3706 40.2286 25.3706C43.8174 25.3706 46.737 22.4509 46.737 18.8622C46.737 15.2734 43.8174 12.3538 40.2286 12.3538ZM40.2286 22.4409C38.2554 22.4409 36.6499 20.8355 36.6499 18.8622C36.65 16.8888 38.2554 15.2834 40.2286 15.2834C42.202 15.2834 43.8073 16.8888 43.8073 18.8622C43.8073 20.8355 42.202 22.4409 40.2286 22.4409Z" fill="black"/>
</svg>
