<svg width="50" height="50" viewBox="0 0 50 50" fill="none" xmlns="http://www.w3.org/2000/svg">
<g clip-path="url(#clip0_41_659)">
<path d="M46.6875 19.5479L43.9082 19.0596C43.5593 17.9439 43.1119 16.8616 42.5713 15.8252L44.1904 13.5176C45.309 11.9265 45.1202 9.76123 43.7432 8.3877L41.6113 6.25586C40.2378 4.87881 38.0726 4.69004 36.4814 5.8086L34.1729 7.42774C33.1364 6.88711 32.0541 6.43975 30.9385 6.09082L30.4502 3.31153C30.1141 1.39707 28.4516 0.00058864 26.5078 2.70216e-06H23.4922C21.5469 -0.00224339 19.8824 1.396 19.5488 3.3125L19.0605 6.09082C17.9449 6.43965 16.8625 6.88701 15.8262 7.42774L13.5186 5.8086C11.9274 4.69004 9.76221 4.87881 8.38867 6.25586L6.25586 8.38867C4.87881 9.76221 4.69004 11.9274 5.8086 13.5186L7.42676 15.8262C6.88614 16.8626 6.43877 17.9449 6.08985 19.0605L3.31153 19.5488C1.39541 19.8828 -0.00224339 21.5473 2.70329e-06 23.4922V26.5078C0.000198016 28.4522 1.39727 30.1154 3.3125 30.4512L6.09082 30.9395C6.43965 32.0551 6.88701 33.1375 7.42774 34.1738L5.8086 36.4814C4.69004 38.0726 4.87881 40.2378 6.25586 41.6113L8.38867 43.7441C9.76221 45.1212 11.9274 45.31 13.5186 44.1914L15.8262 42.5732C16.8625 43.114 17.9449 43.5614 19.0605 43.9102L19.5488 46.6895C19.8832 48.6052 21.5476 50.0023 23.4922 50H26.5078C28.4527 50.0022 30.1172 48.6046 30.4512 46.6885C30.5726 45.9979 30.111 45.3397 29.4204 45.2183C28.7298 45.0969 28.0716 45.5584 27.9502 46.249C27.8273 46.9496 27.219 47.4607 26.5078 47.4609H23.4922C22.7806 47.4612 22.1717 46.95 22.0488 46.249L21.4248 42.6914C21.3402 42.2064 20.9828 41.814 20.5078 41.6846C19.0645 41.2983 17.6776 40.7251 16.3828 39.9795C15.9543 39.7313 15.4205 39.7549 15.0156 40.04L12.0615 42.1123C11.479 42.5206 10.6874 42.4514 10.1846 41.9482L8.05176 39.8154C7.54864 39.3126 7.4794 38.521 7.8877 37.9385L9.96094 34.9854C10.2461 34.5805 10.2697 34.0467 10.0215 33.6182C9.2753 32.3231 8.70137 30.9359 8.31446 29.4922C8.18672 29.0152 7.79395 28.6557 7.30762 28.5703L3.75098 27.9463C3.05186 27.8237 2.54121 27.2176 2.53907 26.5078V23.4922C2.53926 22.781 3.05039 22.1727 3.75098 22.0498L7.3086 21.4258C7.79356 21.3407 8.18555 20.9829 8.31446 20.5078C8.70117 19.0642 9.27471 17.6771 10.0205 16.3818C10.2688 15.9533 10.2451 15.4195 9.95996 15.0147L7.8877 12.0615C7.4794 11.479 7.54864 10.6874 8.05176 10.1846L10.1846 8.05176C10.6874 7.54864 11.479 7.4794 12.0615 7.8877L15.0147 9.96094C15.4195 10.2461 15.9533 10.2697 16.3818 10.0215C17.677 9.27549 19.0641 8.70196 20.5078 8.31543C20.9848 8.1876 21.3443 7.79492 21.4297 7.3086L22.0537 3.75098C22.1763 3.05186 22.7824 2.54121 23.4922 2.53907H26.5078C27.2194 2.53877 27.8283 3.05 27.9512 3.75098L28.5752 7.3086C28.6598 7.79365 29.0172 8.18604 29.4922 8.31543C30.9356 8.70225 32.3223 9.27578 33.6172 10.0215C34.0457 10.2697 34.5795 10.2461 34.9844 9.96094L37.9385 7.88867C38.521 7.48037 39.3126 7.54961 39.8154 8.05274L41.9482 10.1855C42.4514 10.6884 42.5206 11.48 42.1123 12.0625L40.0391 15.0156C39.7539 15.4205 39.7303 15.9543 39.9785 16.3828C40.7241 17.6777 41.2977 19.0645 41.6846 20.5078C41.8127 20.9844 42.2054 21.3436 42.6914 21.4287L46.249 22.0527C46.9485 22.1754 47.4593 22.782 47.4609 23.4922V26.5078C47.4612 27.2194 46.95 27.8283 46.249 27.9512C45.5584 28.0726 45.0969 28.7308 45.2183 29.4214C45.3397 30.112 45.9979 30.5735 46.6885 30.4522C48.6049 30.1181 50.0027 28.4531 50 26.5078V23.4922C50.0003 21.5475 48.603 19.8837 46.6875 19.5479Z" fill="black"/>
<path d="M46.3936 38.2353L38.2725 29.8671C37.2106 28.7787 36.6786 27.2799 36.8165 25.7656C37.3993 19.0983 32.4669 13.2209 25.7997 12.6381C25.0917 12.5762 24.3797 12.5767 23.6719 12.6396C23.1172 12.6847 22.596 12.9232 22.1993 13.3134C21.2339 14.2628 21.2191 15.8144 22.1661 16.7822L25.6651 20.3495C26.3762 21.0739 26.3656 22.2374 25.6413 22.9486C25.6411 22.9488 25.6409 22.949 25.6407 22.9491L22.9317 25.6064C22.207 26.3168 21.0437 26.3054 20.3331 25.581L16.834 22.0136C15.8846 21.0483 14.3331 21.0334 13.3653 21.9804C12.9669 22.3696 12.718 22.8863 12.6622 23.4404C11.9422 30.0942 16.7527 36.0718 23.4065 36.7917C24.1134 36.8682 24.8257 36.8824 25.5352 36.8339C27.0487 36.7253 28.5339 37.284 29.6006 38.3632L37.7168 46.7255C38.2052 47.2287 39.009 47.2407 39.5123 46.7524C40.0155 46.264 40.0275 45.4602 39.5391 44.957L31.418 36.5898C29.8315 34.9782 27.6193 34.1414 25.3633 34.2997C20.0853 34.6615 15.5134 30.676 15.1517 25.398C15.1184 24.9118 15.1222 24.424 15.1631 23.9384L18.5186 27.3564C19.3298 28.1878 20.44 28.6601 21.6016 28.6679H21.6446C22.7901 28.6714 23.8907 28.2225 24.7071 27.4189L27.4161 24.7616C29.1417 23.0689 29.1683 20.2979 27.4756 18.5722L24.1202 15.1542C29.3993 14.8094 33.9584 18.8094 34.3034 24.0885C34.3351 24.5749 34.3297 25.0631 34.2873 25.5488C34.085 27.7986 34.8771 30.0243 36.4552 31.6406L44.5714 40.0038C45.0598 40.5071 45.8636 40.5191 46.3668 40.0307C46.87 39.5423 46.882 38.7385 46.3936 38.2353Z" fill="black"/>
</g>
<defs>
<clipPath id="clip0_41_659">
<rect width="50" height="50" fill="white"/>
</clipPath>
</defs>
</svg>
