<svg width="50" height="50" viewBox="0 0 50 50" fill="none" xmlns="http://www.w3.org/2000/svg">
<path d="M25 50C38.7655 50 50 38.7647 50 25C50 11.2344 38.7647 0 25 0C11.2345 0 0 11.2353 0 25C0 38.7656 11.2353 50 25 50ZM32.4167 45.7868C33.8332 43.9768 34.9189 41.8178 35.7345 39.6475H41.4929C39.0528 42.3926 35.9407 44.5256 32.4167 45.7868ZM43.6937 36.7188H36.6815C37.546 33.5754 38.0531 30.0902 38.1609 26.4648H47.0205C46.7736 30.2137 45.5869 33.7095 43.6937 36.7188ZM43.6937 13.2812C45.5869 16.2905 46.7736 19.7863 47.0205 23.5352H38.1609C38.0531 19.9098 37.546 16.4246 36.6815 13.2812H43.6937ZM41.4928 10.3516H35.7344C34.9191 8.18311 33.8335 6.02383 32.4166 4.21318C35.9407 5.47441 39.0528 7.60742 41.4928 10.3516ZM26.4648 3.18027C29.3395 4.15459 31.4017 7.57334 32.5812 10.3516H26.4648V3.18027ZM26.4648 13.2812H33.6354C34.5669 16.365 35.1148 19.8636 35.2302 23.5352H26.4648V13.2812ZM26.4648 26.4639H35.2302C35.1148 30.1364 34.5669 33.635 33.6354 36.7188H26.4648V26.4639ZM26.4648 39.6475H32.5812C31.3997 42.4313 29.3371 45.8463 26.4648 46.8197V39.6475ZM8.50723 39.6484H14.2656C15.0809 41.8169 16.1665 43.9762 17.5834 45.7868C14.0593 44.5257 10.9472 42.3926 8.50723 39.6484ZM23.5352 46.8197C20.663 45.8463 18.6005 42.4317 17.4188 39.6484H23.5352V46.8197ZM23.5352 36.7188H16.3646C15.4331 33.635 14.8852 30.1364 14.7698 26.4648H23.5352V36.7188ZM23.5352 23.5352H14.7698C14.8852 19.8636 15.4331 16.365 16.3646 13.2812H23.5352V23.5352ZM23.5352 3.18027V10.3516H17.4188C18.6004 7.56855 20.6628 4.15381 23.5352 3.18027ZM17.5833 4.21318C16.1668 6.02324 15.0812 8.18213 14.2655 10.3516H8.50723C10.9472 7.60742 14.0593 5.47432 17.5833 4.21318ZM6.30635 13.2803H13.3185C12.454 16.4246 11.9469 19.9098 11.8391 23.5352H2.97949C3.22637 19.7863 4.41309 16.2905 6.30635 13.2803ZM2.97949 26.4648H11.8391C11.9469 30.0902 12.454 33.5754 13.3185 36.7188H6.30635C4.41309 33.7095 3.22637 30.2137 2.97949 26.4648Z" fill="black"/>
</svg>
