<svg width="50" height="50" viewBox="0 0 50 50" fill="none" xmlns="http://www.w3.org/2000/svg">
<path d="M21.8475 12.1836C17.1574 13.2772 13.3819 16.9966 12.229 21.6593C11.0724 26.337 12.396 31.1048 15.7699 34.4133C16.9632 35.5837 17.6758 37.4596 17.6758 39.4314V39.7461C17.6758 41.0446 18.2423 42.2129 19.1407 43.0181V45.6055C19.1407 48.0286 21.1121 50 23.5352 50H26.4649C28.888 50 30.8594 48.0286 30.8594 45.6055V43.0181C31.7578 42.2129 32.3243 41.0447 32.3243 39.7461V39.4256C32.3243 37.4838 33.075 35.5723 34.3324 34.3122C36.8159 31.8233 38.1836 28.5161 38.1836 25C38.1836 16.5939 30.3937 10.1916 21.8475 12.1836ZM27.9297 45.6055C27.9297 46.4132 27.2726 47.0703 26.4649 47.0703H23.5352C22.7275 47.0703 22.0704 46.4132 22.0704 45.6055V44.1407H27.9297V45.6055ZM32.2584 32.2428C30.4384 34.0667 29.3946 36.6847 29.3946 39.4256V39.7461C29.3946 40.5538 28.7375 41.211 27.9297 41.211H22.0704C21.2626 41.211 20.6055 40.5538 20.6055 39.7461V39.4314C20.6055 36.6483 19.5906 34.0569 17.821 32.3216C15.1951 29.7464 14.1678 26.0235 15.0729 22.3625C15.964 18.7583 18.8843 15.8828 22.5127 15.0369C29.219 13.4731 35.254 18.4793 35.254 25C35.254 27.7348 34.1901 30.307 32.2584 32.2428Z" fill="#0D47A1"/>
<path d="M13.6063 11.5346L9.46304 7.39145C8.89106 6.81938 7.96353 6.81938 7.39146 7.39145C6.81938 7.96352 6.81938 8.89096 7.39146 9.46303L11.5347 13.6062C12.1067 14.1783 13.0343 14.1783 13.6063 13.6062C14.1784 13.0341 14.1784 12.1067 13.6063 11.5346Z" fill="#0D47A1"/>
<path d="M7.42188 23.5352H1.46484C0.655859 23.5352 0 24.191 0 25C0 25.809 0.655859 26.4648 1.46484 26.4648H7.42188C8.23086 26.4648 8.88672 25.809 8.88672 25C8.88672 24.191 8.23086 23.5352 7.42188 23.5352Z" fill="#0D47A1"/>
<path d="M48.5352 23.5352H42.5781C41.7691 23.5352 41.1133 24.191 41.1133 25C41.1133 25.809 41.7691 26.4648 42.5781 26.4648H48.5352C49.3441 26.4648 50 25.809 50 25C50 24.191 49.3441 23.5352 48.5352 23.5352Z" fill="#0D47A1"/>
<path d="M42.6088 7.39145C42.0369 6.81938 41.1093 6.81938 40.5372 7.39145L36.3939 11.5346C35.8218 12.1066 35.8218 13.0341 36.3939 13.6062C36.9659 14.1783 37.8934 14.1783 38.4655 13.6062L42.6088 9.46303C43.1808 8.89106 43.1808 7.96352 42.6088 7.39145Z" fill="#0D47A1"/>
<path d="M25 0C24.191 0 23.5352 0.655859 23.5352 1.46484V7.42188C23.5352 8.23086 24.191 8.88672 25 8.88672C25.809 8.88672 26.4648 8.23086 26.4648 7.42188V1.46484C26.4648 0.655859 25.809 0 25 0Z" fill="#0D47A1"/>
<path d="M25.0001 17.6758C24.398 17.6758 23.7846 17.7479 23.1781 17.89C20.6522 18.4796 18.5377 20.5588 17.9165 23.0638C17.7217 23.849 18.2003 24.6434 18.9855 24.8382C19.7709 25.0329 20.5652 24.5541 20.7599 23.769C21.1174 22.3278 22.3856 21.0835 23.8452 20.7428C24.234 20.6517 24.6227 20.6055 25.0001 20.6055C25.8091 20.6055 26.465 19.9496 26.465 19.1406C26.465 18.3316 25.8091 17.6758 25.0001 17.6758Z" fill="#0D47A1"/>
</svg>
