<svg width="42" height="50" viewBox="0 0 42 50" fill="none" xmlns="http://www.w3.org/2000/svg">
<path d="M0.384448 44.7649C0.776836 45.1935 1.38544 45.3496 1.93584 45.1628L8.20692 43.0335L10.8286 49.115C11.0593 49.6501 11.5852 49.9977 12.1678 50H12.1739C12.7541 50 13.2799 49.6574 13.5142 49.1261L18.4012 38.0409C19.1664 38.1349 19.9453 38.1842 20.7355 38.1842C21.5258 38.1842 22.3046 38.135 23.0698 38.0409L27.9568 49.1261C28.191 49.6574 28.7169 50.0001 29.2972 50H29.3033C29.886 49.9977 30.4118 49.6501 30.6425 49.115L33.2643 43.0335L39.5354 45.1628C40.0853 45.3496 40.6944 45.1936 41.0868 44.7649C41.4792 44.3363 41.5812 43.7161 41.3465 43.1844L35.8459 30.7162C38.3109 27.5059 39.7788 23.4919 39.7788 19.1409C39.7788 8.58654 31.236 0 20.7356 0C10.2352 0 1.69238 8.58654 1.69238 19.1409C1.69238 23.4919 3.16027 27.506 5.62534 30.7162L0.124679 43.1844C-0.109894 43.7161 -0.00803756 44.3363 0.384448 44.7649ZM37.3203 41.3167L32.9255 39.8244C32.2023 39.5787 31.4117 39.9302 31.1093 40.6316L29.2822 44.8698L26.0074 37.4412C28.9116 36.6033 31.5321 35.0909 33.6891 33.0859L37.3203 41.3167ZM4.6221 19.1409C4.6221 10.202 11.8506 2.92973 20.7356 2.92973C29.6206 2.92973 36.8491 10.202 36.8491 19.1409C36.8491 28.0259 29.6206 35.2544 20.7356 35.2544C11.8506 35.2544 4.6221 28.0259 4.6221 19.1409ZM7.78201 33.0859C9.93907 35.0909 12.5596 36.6034 15.4639 37.4412L12.1889 44.8697L10.3619 40.6315C10.0595 39.93 9.26894 39.5787 8.54579 39.8243L4.15091 41.3166L7.78201 33.0859Z" fill="#0D47A1"/>
<path d="M14.9822 21.0101L14.1256 26.0037C14.0314 26.5532 14.2573 27.1086 14.7083 27.4364C15.1586 27.7635 15.7567 27.8078 16.251 27.5479L20.7356 25.1903L25.22 27.5479C25.7137 27.8074 26.3118 27.7641 26.7627 27.4364C27.2138 27.1086 27.4398 26.5533 27.3455 26.0037L26.4891 21.0101L30.1171 17.4737C30.5163 17.0845 30.66 16.5024 30.4877 15.9721C30.3153 15.4418 29.857 15.0553 29.3052 14.9751L24.2914 14.2466L22.0492 9.70333C21.8024 9.20332 21.2931 8.88672 20.7356 8.88672C20.178 8.88672 19.6688 9.20323 19.422 9.70333L17.1798 14.2466L12.1659 14.9751C11.6142 15.0553 11.1557 15.4418 10.9834 15.9721C10.811 16.5024 10.9548 17.0845 11.354 17.4738L14.9822 21.0101ZM18.3632 17.035C18.8403 16.9656 19.2527 16.666 19.4661 16.2336L20.7356 13.6614L22.005 16.2336C22.2184 16.6659 22.6309 16.9656 23.108 17.035L25.9466 17.4475L23.8926 19.4497C23.5473 19.7862 23.3898 20.2711 23.4714 20.7463L23.9562 23.5734L21.4172 22.2387C20.9906 22.0143 20.4807 22.0142 20.0539 22.2387L17.5149 23.5734L17.9998 20.7463C18.0812 20.2711 17.9237 19.7862 17.5785 19.4497L15.5244 17.4475L18.3632 17.035Z" fill="#0D47A1"/>
</svg>
