<svg width="50" height="50" viewBox="0 0 50 50" fill="none" xmlns="http://www.w3.org/2000/svg">
<path d="M46.352 7.25283C43.8858 4.45459 40.4646 2.91357 36.7188 2.91357C31.4504 2.91357 28.1149 6.06006 26.2446 8.69971C25.7594 9.38467 25.3466 10.0715 25 10.7178C24.6534 10.0715 24.2407 9.38467 23.7554 8.69971C21.8851 6.06006 18.5496 2.91357 13.2812 2.91357C9.53535 2.91357 6.11416 4.45469 3.64795 7.25293C1.29561 9.92227 0 13.4973 0 17.3193C0 21.4798 1.62432 25.3494 5.11182 29.4971C8.22871 33.2041 12.7128 37.0252 17.9053 41.4499C19.8401 43.0987 21.841 44.8038 23.9712 46.6676L24.0352 46.7236C24.3113 46.9654 24.6557 47.0862 25 47.0862C25.3443 47.0862 25.6887 46.9653 25.9648 46.7236L26.0288 46.6676C28.159 44.8038 30.1599 43.0988 32.095 41.4497C37.2872 37.0253 41.7713 33.2042 44.8882 29.4971C48.3757 25.3493 50 21.4798 50 17.3193C50 13.4973 48.7044 9.92227 46.352 7.25283ZM30.1946 39.22C28.5267 40.6413 26.8101 42.1041 25 43.6776C23.19 42.1043 21.4733 40.6414 19.8051 39.2198C9.64307 30.5604 2.92969 24.8396 2.92969 17.3193C2.92969 14.2109 3.96533 11.3238 5.8459 9.18994C7.74805 7.03184 10.3886 5.84326 13.2812 5.84326C17.2978 5.84326 19.8941 8.31768 21.3648 10.3935C22.6841 12.2552 23.3725 14.1319 23.6072 14.8523C23.8036 15.4554 24.3658 15.8635 25 15.8635C25.6342 15.8635 26.1964 15.4554 26.3928 14.8523C26.6275 14.1319 27.3159 12.2552 28.6352 10.3934C30.1059 8.31768 32.7022 5.84326 36.7188 5.84326C39.6114 5.84326 42.252 7.03184 44.154 9.18994C46.0347 11.3238 47.0703 14.2109 47.0703 17.3193C47.0703 24.8396 40.3569 30.5604 30.1946 39.22Z" fill="#0D47A1"/>
</svg>
