<svg width="50" height="50" viewBox="0 0 50 50" fill="none" xmlns="http://www.w3.org/2000/svg">
<path d="M47.2302 20.8164C46.2319 20.1995 45.1207 20.0739 44.1406 20.1704V19.1406C44.1406 8.61338 35.526 0 25 0C14.4728 0 5.85938 8.61465 5.85938 19.1406V20.1704C4.8793 20.0738 3.76797 20.1995 2.76982 20.8164C0.931836 21.9523 0 24.3456 0 27.9297C0 31.5197 0.933594 33.9257 2.7749 35.0809C3.68955 35.6547 4.75771 35.854 5.85938 35.7593V36.8164C5.85938 37.6254 6.51523 38.2812 7.32422 38.2812H13.1836C13.9926 38.2812 14.6484 37.6254 14.6484 36.8164V19.1406C14.6484 18.3316 13.9926 17.6758 13.1836 17.6758H8.85596C9.59893 9.421 16.5551 2.92969 25 2.92969C33.4449 2.92969 40.4011 9.421 41.144 17.6758H36.8164C36.0074 17.6758 35.3516 18.3316 35.3516 19.1406V36.8164C35.3516 37.6254 36.0074 38.2812 36.8164 38.2812H41.2109V39.7461C41.2109 42.1692 39.2396 44.1406 36.8164 44.1406H32.0723C31.4676 42.4357 29.8394 41.2109 27.9297 41.2109H25C22.5769 41.2109 20.6055 43.1823 20.6055 45.6055C20.6055 48.0286 22.5769 50 25 50H27.9297C29.8394 50 31.4676 48.7752 32.0723 47.0703H36.8164C40.855 47.0703 44.1406 43.7847 44.1406 39.7461C44.1406 37.9618 44.1406 36.9171 44.1406 35.7592C45.2424 35.8539 46.3106 35.6545 47.2251 35.0808C49.0664 33.9257 50 31.5197 50 27.9297C50 24.3456 49.0682 21.9523 47.2302 20.8164ZM5.85938 32.8106C5.39199 32.892 4.80781 32.8977 4.33184 32.599C3.42764 32.0318 2.92969 30.3735 2.92969 27.9297C2.92969 25.5093 3.4165 23.8702 4.30039 23.3146C4.77832 23.0141 5.38047 23.0354 5.85938 23.13V32.8106ZM11.7188 20.6055V35.3516H8.78906V20.6055H11.7188ZM27.9297 47.0703H25C24.1923 47.0703 23.5352 46.4132 23.5352 45.6055C23.5352 44.7978 24.1923 44.1406 25 44.1406H27.9297C28.7374 44.1406 29.3945 44.7978 29.3945 45.6055C29.3945 46.4132 28.7374 47.0703 27.9297 47.0703ZM41.2109 35.3516H38.2812V20.6055H41.2109V35.3516ZM45.6786 32.5925C45.2052 32.8947 44.6146 32.8889 44.1406 32.8067V23.1301C44.6195 23.0355 45.2216 23.0142 45.6996 23.3146C46.5835 23.8702 47.0703 25.5093 47.0703 27.9297C47.0703 30.3636 46.576 32.0195 45.6786 32.5925Z" fill="#0F3E97"/>
</svg>
