<svg width="50" height="50" viewBox="0 0 50 50" fill="none" xmlns="http://www.w3.org/2000/svg">
<g clip-path="url(#clip0_77_135)">
<path d="M48.5348 50H1.46483C0.655854 50 0 49.3441 0 48.5351C0 47.7262 0.655854 47.0703 1.46483 47.0703H48.5348C49.3438 47.0703 49.9996 47.7262 49.9996 48.5351C49.9996 49.3441 49.3438 50 48.5348 50Z" fill="black"/>
<path d="M10.3515 50H4.49218C3.6832 50 3.02734 49.3442 3.02734 48.5352V37.7931C3.02734 36.4469 4.12255 35.3517 5.46873 35.3517H9.37495C10.7211 35.3517 11.8163 36.4469 11.8163 37.7931V48.5352C11.8163 49.3442 11.1605 50 10.3515 50ZM5.95701 47.0703H8.88667V38.2813H5.95701V47.0703ZM9.37495 38.2813H9.37593H9.37495Z" fill="black"/>
<path d="M22.0703 50H16.2109C15.4019 50 14.7461 49.3441 14.7461 48.5352V34.2774C14.7461 32.9313 15.8413 31.8361 17.1875 31.8361H21.0937C22.4399 31.8361 23.5351 32.9313 23.5351 34.2774V48.5352C23.5351 49.3441 22.8792 50 22.0703 50ZM17.6758 47.0703H20.6054V34.7657H17.6758V47.0703ZM21.0937 34.7657H21.0947H21.0937Z" fill="black"/>
<path d="M33.789 50H27.9297C27.1207 50 26.4648 49.3441 26.4648 48.5352V28.9064C26.4648 27.5602 27.5601 26.465 28.9062 26.465H32.8125C34.1586 26.465 35.2538 27.5602 35.2538 28.9064V48.5352C35.2538 49.3441 34.598 50 33.789 50ZM29.3945 47.0703H32.3242V29.3947H29.3945V47.0703ZM32.8125 29.3947H32.8134H32.8125Z" fill="black"/>
<path d="M45.5073 50H39.6479C38.839 50 38.1831 49.3441 38.1831 48.5352V19.1409C38.1831 17.7947 39.2783 16.6995 40.6245 16.6995H44.5307C45.8769 16.6995 46.9721 17.7947 46.9721 19.1409V48.5352C46.9721 49.3441 46.3162 50 45.5073 50ZM41.1128 47.0703H44.0424V19.6291H41.1128V47.0703ZM44.5307 19.6291H44.5317H44.5307Z" fill="black"/>
<path d="M1.46483 31.4751C0.655854 31.4751 0 30.8193 0 30.0103C0 29.2013 0.655854 28.5455 1.46483 28.5455C10.0786 28.5455 19.4573 25.4088 27.8729 19.7132C35.6152 14.4735 41.7844 7.60441 44.7989 0.867252C45.1293 0.128781 45.9958 -0.202076 46.7342 0.128488C47.4727 0.458856 47.8034 1.32535 47.473 2.06383C44.2419 9.28516 37.6965 16.6025 29.515 22.1395C20.6197 28.1596 10.6578 31.4751 1.46483 31.4751Z" fill="black"/>
<path d="M48.5338 11.8825C47.8869 11.8825 47.2951 11.4509 47.1198 10.7964L45.1002 3.25923L37.5631 5.27884C36.7813 5.48841 35.9784 5.02455 35.769 4.24311C35.5597 3.46167 36.0233 2.65845 36.8048 2.44908L45.7568 0.0503644C46.5386 -0.159107 47.3415 0.304757 47.5509 1.0861L49.9496 10.0382C50.159 10.8196 49.6953 11.6228 48.9139 11.8322C48.7868 11.8662 48.6593 11.8825 48.5338 11.8825Z" fill="black"/>
</g>
<defs>
<clipPath id="clip0_77_135">
<rect width="50" height="50" fill="white"/>
</clipPath>
</defs>
</svg>
