<svg width="15" height="12" viewBox="0 0 15 12" fill="none" xmlns="http://www.w3.org/2000/svg">
<path d="M13.1688 0H1.83426C0.82247 0 0 0.82247 0 1.83426V9.581C0 10.5928 0.82247 11.4153 1.83426 11.4153H13.1657C14.1775 11.4153 15 10.5928 15 9.581V1.83737C15.0031 0.825574 14.1806 0 13.1688 0ZM14.1651 9.581C14.1651 10.1303 13.7182 10.5773 13.1688 10.5773H1.83426C1.28492 10.5773 0.837988 10.1303 0.837988 9.581V1.83737C0.837988 1.28802 1.28492 0.841092 1.83426 0.841092H13.1657C13.7151 0.841092 14.162 1.28802 14.162 1.83737V9.581H14.1651Z" fill="#0D47A1"/>
<path d="M9.46006 5.61147L13.1286 2.32159C13.2993 2.16641 13.3148 1.90259 13.1596 1.72879C13.0044 1.55809 12.7406 1.54257 12.5668 1.69775L7.50786 6.23841L6.5209 5.35697C6.51779 5.35387 6.51469 5.35076 6.51469 5.34766C6.49296 5.32593 6.47124 5.30731 6.44641 5.28869L2.43027 1.69465C2.25647 1.53947 1.99265 1.55498 1.83747 1.72879C1.68229 1.90259 1.69781 2.16641 1.87161 2.32159L5.58359 5.6394L1.88713 9.09998C1.71953 9.25827 1.71022 9.52208 1.86851 9.69278C1.95231 9.77969 2.06404 9.82624 2.17577 9.82624C2.27819 9.82624 2.38061 9.789 2.46131 9.71451L6.21363 6.20427L7.23163 7.11364C7.31233 7.18503 7.41165 7.21917 7.51096 7.21917C7.61028 7.21917 7.7127 7.18192 7.79029 7.11054L8.83623 6.17323L12.5668 9.71761C12.6475 9.7952 12.753 9.83245 12.8555 9.83245C12.9672 9.83245 13.0758 9.789 13.1596 9.70209C13.3179 9.5345 13.3117 9.26758 13.1441 9.10929L9.46006 5.61147Z" fill="#0D47A1"/>
</svg>
