<svg width="15" height="15" viewBox="0 0 15 15" fill="none" xmlns="http://www.w3.org/2000/svg">
<path d="M14.8615 6.45772L7.80264 0.145465C7.7903 0.133124 7.77796 0.123869 7.76253 0.114613C7.60827 -0.0334751 7.36146 -0.0396455 7.19794 0.105357L0.139067 6.41761C-0.0337029 6.57187 -0.0460436 6.83411 0.10513 7.00688C0.18843 7.09944 0.302581 7.14571 0.416732 7.14571C0.515458 7.14571 0.614183 7.11178 0.694398 7.04082L1.96549 5.90239V6.12452V9.41948V13.2636C1.96549 13.8405 2.43444 14.3126 3.01445 14.3126C3.0237 14.3126 3.02987 14.3126 3.03913 14.3126C3.04839 14.3126 3.05456 14.3126 3.06381 14.3126H5.24194C5.78493 14.3126 6.22611 13.8714 6.22611 13.3284V9.58608C6.22611 9.50278 6.29399 9.43491 6.37729 9.43491H8.62638C8.70968 9.43491 8.77755 9.50278 8.77755 9.58608V13.3284C8.77755 13.8714 9.21873 14.3126 9.76172 14.3126H11.9892C12.5754 14.3126 13.0382 13.7356 13.0382 12.9983V9.56757V8.51861V5.9425L14.3093 7.08093C14.3895 7.15188 14.4882 7.18582 14.5869 7.18582C14.7011 7.18582 14.8152 7.13954 14.8985 7.04699C15.0466 6.87422 15.0312 6.61198 14.8615 6.45772ZM12.2021 8.51553V9.56449V12.9921C12.2021 13.2914 12.054 13.4734 11.9861 13.4734H9.75864C9.67534 13.4734 9.60746 13.4055 9.60746 13.3222V9.58608C9.60746 9.04309 9.16628 8.60191 8.62329 8.60191H6.3742C5.83121 8.60191 5.39003 9.04309 5.39003 9.58608V13.3284C5.39003 13.4117 5.32216 13.4796 5.23886 13.4796H3.06073C3.05147 13.4796 3.0453 13.4796 3.03604 13.4796C3.02679 13.4796 3.02062 13.4796 3.01136 13.4796C2.89413 13.4796 2.7954 13.3839 2.7954 13.2636V9.4164V6.12144V5.15578L7.47869 0.97229L12.2021 5.19589V8.51553Z" fill="#0D47A1"/>
</svg>
