<svg width="30" height="30" viewBox="0 0 30 30" fill="none" xmlns="http://www.w3.org/2000/svg">
<circle cx="15" cy="15" r="15" fill="white"/>
<path fill-rule="evenodd" clip-rule="evenodd" d="M22.5 22.4859H19.3922V17.6222C19.3922 16.4625 19.3716 14.9709 17.7769 14.9709C16.1597 14.9709 15.9131 16.2347 15.9131 17.5397V22.4859H12.8081V12.4847H15.7875V13.8525H15.8306C16.245 13.0659 17.2594 12.2362 18.7716 12.2362C21.9188 12.2362 22.5 14.3072 22.5 17.0006V22.4859ZM9.30375 11.1187C8.30531 11.1187 7.5 10.3106 7.5 9.31594C7.5 8.32125 8.30531 7.51312 9.30375 7.51312C10.2975 7.51312 11.1047 8.32125 11.1047 9.31594C11.1047 10.3106 10.2975 11.1187 9.30375 11.1187ZM10.8581 22.4859H7.74656V12.4847H10.8581V22.4859ZM15 0C6.71531 0 0 6.71531 0 15C0 23.2838 6.71531 30 15 30C23.2847 30 30 23.2838 30 15C30 6.71531 23.2847 0 15 0Z" fill="#2E78B6"/>
</svg>
