<svg width="50" height="50" viewBox="0 0 50 50" fill="none" xmlns="http://www.w3.org/2000/svg">
<path d="M3.02734 48.5352C3.02734 49.3443 3.68309 50 4.49219 50H13.2812C14.6896 50 15.9447 49.3332 16.7496 48.2994C20.3201 49.4274 24.0265 50 27.7756 50H39.6484C42.0715 50 44.043 48.0286 44.043 45.6055C44.043 45.0336 43.932 44.4874 43.7325 43.9857C45.5971 43.4776 46.9727 41.7698 46.9727 39.7461C46.9727 38.6215 46.5473 37.5946 45.85 36.8164C46.5477 36.0382 46.9727 35.0113 46.9727 33.8867C46.9727 32.7621 46.5473 31.7352 45.85 30.957C46.5477 30.1788 46.9727 29.1519 46.9727 28.0273C46.9727 25.6042 45.0012 23.6328 42.5781 23.6328H34.56C34.6737 23.3635 34.7912 23.0904 34.911 22.8127C35.7998 20.7516 36.7188 18.6203 36.7188 16.3086C36.7188 12.2597 33.4438 8.88672 29.3945 8.88672C28.6964 8.88672 28.0952 9.37958 27.9583 10.0643L27.2102 13.8046C26.2276 18.7172 25.1423 19.2734 21.1044 21.3425C20.0371 21.8891 18.7832 22.5319 17.3199 23.3662C16.6462 21.8018 15.0898 20.7031 13.2812 20.7031H4.49219C3.68309 20.7031 3.02734 21.3589 3.02734 22.168V48.5352ZM22.44 23.9498C24.6265 22.8294 26.2058 22.0203 27.4426 20.6505C28.7071 19.2493 29.4724 17.4324 30.0831 14.3791L30.5618 11.9843C32.399 12.5221 33.7891 14.2849 33.7891 16.3086C33.7891 18.0153 32.9918 19.8643 32.2205 21.6526C31.9408 22.3015 31.6555 22.9649 31.4014 23.6328H29.3945C28.5854 23.6328 27.9297 24.2886 27.9297 25.0977C27.9297 25.9068 28.5854 26.5625 29.3945 26.5625H42.5781C43.3857 26.5625 44.043 27.2198 44.043 28.0273C44.043 28.8349 43.3857 29.4922 42.5781 29.4922H39.6484C38.8393 29.4922 38.1836 30.1479 38.1836 30.957C38.1836 31.7661 38.8393 32.4219 39.6484 32.4219H42.5781C43.3857 32.4219 44.043 33.0791 44.043 33.8867C44.043 34.6943 43.3857 35.3516 42.5781 35.3516H39.6484C38.8393 35.3516 38.1836 36.0073 38.1836 36.8164C38.1836 37.6255 38.8393 38.2812 39.6484 38.2812H42.5781C43.3857 38.2812 44.043 38.9385 44.043 39.7461C44.043 40.5537 43.3857 41.2109 42.5781 41.2109H39.6484C38.8393 41.2109 38.1836 41.8667 38.1836 42.6758C38.1836 43.4849 38.8393 44.1406 39.6484 44.1406C40.456 44.1406 41.1133 44.7979 41.1133 45.6055C41.1133 46.413 40.456 47.0703 39.6484 47.0703H27.7756C24.342 47.0703 20.9473 46.5485 17.6758 45.52V26.5499C19.5644 25.4238 21.1441 24.614 22.44 23.9498ZM5.95703 23.6328H13.2812C14.0888 23.6328 14.7461 24.2901 14.7461 25.0977V45.6055C14.7461 46.413 14.0888 47.0703 13.2812 47.0703H5.95703V23.6328Z" fill="#0D47A1"/>
<path d="M11.8164 42.6758C11.8164 43.4849 11.1607 44.1406 10.3516 44.1406C9.54247 44.1406 8.88672 43.4849 8.88672 42.6758C8.88672 41.8667 9.54247 41.2109 10.3516 41.2109C11.1607 41.2109 11.8164 41.8667 11.8164 42.6758Z" fill="#0D47A1"/>
<path d="M29.3945 1.46484V4.49219C29.3945 5.30128 30.0503 5.95703 30.8594 5.95703C31.6685 5.95703 32.3242 5.30128 32.3242 4.49219V1.46484C32.3242 0.655746 31.6685 0 30.8594 0C30.0503 0 29.3945 0.655746 29.3945 1.46484Z" fill="#0D47A1"/>
<path d="M38.6132 3.88517L36.5415 5.95693C35.9693 6.52913 35.9693 7.45649 36.5415 8.02869C37.1137 8.60051 38.041 8.60051 38.6132 8.02869L40.6846 5.95693C41.2568 5.38472 41.2568 4.45737 40.6846 3.88517C40.1124 3.31334 39.185 3.31334 38.6132 3.88517Z" fill="#0D47A1"/>
<path d="M21.0346 3.88517C20.4624 4.45737 20.4624 5.38472 21.0346 5.95693L23.106 8.02869C23.6782 8.60051 24.6056 8.60051 25.1778 8.02869C25.7496 7.45649 25.7496 6.52913 25.1778 5.95693L23.106 3.88517C22.5342 3.31334 21.6064 3.31334 21.0346 3.88517Z" fill="#0D47A1"/>
</svg>
