<svg width="50" height="50" viewBox="0 0 50 50" fill="none" xmlns="http://www.w3.org/2000/svg">
<g clip-path="url(#clip0_87_28)">
<path d="M12.5375 34.8514L11.1479 40.4475L23.535 38.4339V49.9935H26.4649V38.4338L38.852 40.4474L37.4624 34.8513L49.9999 25.1024L45.5764 22.9911L48.3803 14.2719L40.2723 16.1759L39.8425 11.096L33.3147 17.0484L35.2118 5.119L29.6391 7.07691L25 0.00634766L20.3609 7.07691L14.788 5.119L16.6851 17.0484L10.1573 11.096L9.72762 16.1759L1.61971 14.2719L4.42346 22.9911L0 25.1025L12.5375 34.8514ZM5.99541 18.3091L12.3611 19.8039L12.5757 17.2662L20.8924 24.8497L18.4533 9.51218L21.5527 10.601L25 5.34704L28.4471 10.601L31.5466 9.51208L29.1075 24.8497L37.4242 17.2662L37.639 19.8039L44.0045 18.3091L42.0033 24.5321L44.4553 25.7024L34.1597 33.7081L34.938 36.8429L24.9999 35.2274L15.0617 36.8429L15.84 33.7081L5.54451 25.7024L7.99648 24.5321L5.99541 18.3091Z" fill="white"/>
</g>
<defs>
<clipPath id="clip0_87_28">
<rect width="50" height="50" fill="white"/>
</clipPath>
</defs>
</svg>
