<svg width="50" height="50" viewBox="0 0 50 50" fill="none" xmlns="http://www.w3.org/2000/svg">
<g clip-path="url(#clip0_87_69)">
<path d="M24.0833 49.7208C24.6413 50.0936 25.3687 50.0936 25.9267 49.7208C27.6433 48.575 42.76 38.0975 44.7775 23.3042C45.5821 17.4134 43.8316 11.4595 39.9667 6.94168C36.3372 2.62438 31.0145 0.092246 25.375 1.10625e-05C20.006 -0.100676 14.822 1.96193 10.9898 5.72362C7.15759 9.48532 4.99906 14.6301 5 20C5 36.5117 22.1267 48.4167 24.0833 49.7208ZM12.1567 6.91668C15.5764 3.53921 20.1936 1.65186 25 1.66668H25.3467C30.5087 1.75345 35.3798 4.07304 38.7008 8.02585C42.2551 12.1826 43.8643 17.6597 43.1233 23.0783C41.2025 37.1467 26.6508 47.2283 25.0042 48.3333C23.1275 47.0833 6.66667 35.645 6.66667 20C6.6508 15.0757 8.6316 10.3552 12.1567 6.91668Z" fill="white"/>
<path d="M29.9992 38.3333H19.9992C19.6622 38.3334 19.3584 38.5364 19.2295 38.8478C19.1005 39.1591 19.1718 39.5175 19.41 39.7558L24.41 44.7558C24.7354 45.0812 25.2629 45.0812 25.5884 44.7558L30.5884 39.7558C30.8266 39.5175 30.8979 39.1591 30.7689 38.8478C30.64 38.5364 30.3362 38.3334 29.9992 38.3333ZM24.9992 42.9883L22.0109 40H27.9875L24.9992 42.9883Z" fill="white"/>
<path d="M41.6673 20C41.6673 10.7953 34.2054 3.33334 25.0007 3.33334C15.7959 3.33334 8.33398 10.7953 8.33398 20C8.33398 29.2048 15.7959 36.6667 25.0007 36.6667C34.201 36.6561 41.6568 29.2004 41.6673 20ZM10.0007 20C10.0007 11.7157 16.7164 5.00001 25.0007 5.00001C33.2849 5.00001 40.0007 11.7157 40.0007 20C40.0007 28.2843 33.2849 35 25.0007 35C16.7204 34.9904 10.0103 28.2803 10.0007 20Z" fill="white"/>
<path d="M25.8333 31.6667V27.7033L30.8333 28.8058C31.2038 28.8857 31.5883 28.758 31.8375 28.4725C32.0924 28.1815 32.1699 27.7753 32.04 27.4108C31.9275 27.1008 31.82 26.7967 31.715 26.4867L31.5483 26.0042C32.8017 24.9636 34.0542 23.9214 35.3058 22.8775L36.1992 22.135C36.4967 21.885 36.7942 21.635 37.0942 21.3967C37.3833 21.2019 37.5379 20.8608 37.4939 20.515C37.4498 20.1692 37.2146 19.8777 36.8858 19.7617C36.6358 19.6475 36.3858 19.5258 36.1358 19.4042L36.08 19.3767L37.0192 16.3892C37.1355 16.0316 37.0529 15.6391 36.8022 15.3588C36.5516 15.0785 36.1708 14.9526 35.8025 15.0283L34.8375 15.2367C34.2658 15.36 33.6897 15.4864 33.1092 15.6158C32.9592 15.2625 32.8108 14.9067 32.665 14.5383C32.5649 14.2076 32.2872 13.9613 31.9469 13.9012C31.6066 13.8412 31.2614 13.9777 31.0542 14.2542C30.5542 14.8164 30.0483 15.3758 29.5367 15.9325L30.47 11.0483C30.5503 10.6412 30.3837 10.2249 30.0446 9.98563C29.7056 9.74635 29.2575 9.7288 28.9008 9.94084L27.6408 10.6908C27.2083 9.81668 26.5433 8.47001 25.9467 7.25668C25.7711 6.89614 25.4052 6.66736 25.0042 6.66736C24.6031 6.66736 24.2373 6.89614 24.0617 7.25668C23.4658 8.46918 22.8025 9.81334 22.3675 10.6917L21.1092 9.94168C20.7525 9.72923 20.3043 9.74624 19.9649 9.98511C19.6254 10.224 19.458 10.6401 19.5375 11.0475L20.4717 15.9333C19.9633 15.3742 19.4558 14.815 18.9483 14.2483C18.7365 13.9809 18.3969 13.8487 18.06 13.9025C17.7202 13.9707 17.4442 14.218 17.3392 14.5483C17.2008 14.8975 17.0575 15.2425 16.8992 15.6167C16.323 15.4883 15.7458 15.3614 15.1675 15.2358L14.2108 15.03C13.8433 14.9525 13.4623 15.0761 13.2102 15.3546C12.9582 15.6331 12.873 16.0245 12.9867 16.3825L13.9275 19.3775L13.8725 19.4042C13.6225 19.5258 13.3725 19.6475 13.1175 19.7625C12.7899 19.8789 12.5556 20.1697 12.5114 20.5145C12.4672 20.8594 12.6207 21.1997 12.9083 21.395C13.2108 21.6383 13.5083 21.8867 13.8058 22.135L14.6992 22.8775L18.4558 26.0058L18.2842 26.4917C18.1808 26.7967 18.0733 27.1008 17.9583 27.4175C17.8312 27.7804 17.9096 28.1836 18.1633 28.4725C18.4143 28.759 18.8011 28.8866 19.1733 28.8058L24.1733 27.705V31.6667C24.1733 32.1269 24.5464 32.5 25.0067 32.5C25.4669 32.5 25.84 32.1269 25.84 31.6667H25.8333ZM19.8892 26.9392L20.0833 26.3925C20.3394 25.8382 20.1576 25.1801 19.6533 24.8358C18.355 23.7575 17.058 22.6781 15.7625 21.5975L14.8692 20.855L14.8058 20.8017L14.8892 20.7617C15.5327 20.4962 15.8443 19.7636 15.5892 19.1158L14.8867 16.8817C15.5267 17.02 16.1708 17.162 16.8192 17.3075C17.4655 17.4838 18.1359 17.1192 18.3392 16.4808C18.3792 16.3875 18.4225 16.2933 18.4583 16.1992C18.8594 16.6436 19.2617 17.0861 19.665 17.5267L20.1692 18.0825C20.1783 18.0925 20.2308 18.1508 20.2408 18.16C20.6249 18.5764 21.2425 18.6793 21.7408 18.41C22.234 18.1459 22.4916 17.5864 22.3717 17.04C22.3308 16.8042 22.2883 16.5683 22.2417 16.3325L21.4292 12.07L21.855 12.32C22.1606 12.531 22.5452 12.5923 22.9013 12.487C23.2574 12.3816 23.5467 12.1208 23.6883 11.7775C23.9917 11.1675 24.49 10.1575 25.005 9.11084C25.52 10.1567 26.0192 11.1675 26.3233 11.7775C26.4734 12.1159 26.7618 12.3733 27.115 12.4842C27.4645 12.5789 27.8378 12.5204 28.1417 12.3233C28.2125 12.2825 28.3675 12.1908 28.5783 12.0658L27.76 16.3333C27.7158 16.57 27.6717 16.8067 27.635 17.0217C27.508 17.5764 27.7677 18.1476 28.2692 18.4167C28.7664 18.68 29.3787 18.5746 29.7592 18.16C29.7683 18.1508 29.8692 18.0383 29.8783 18.0283L30.335 17.5283C30.7383 17.0839 31.1405 16.6414 31.5417 16.2008C31.5867 16.3083 31.6325 16.4167 31.68 16.5283C31.8956 17.1478 32.5583 17.4902 33.1883 17.3075C33.83 17.1642 34.475 17.0208 35.1133 16.8833L34.4108 19.1167C34.1556 19.7667 34.4696 20.5012 35.1158 20.7658L35.1942 20.8033L35.1308 20.8567L34.2375 21.5992C32.943 22.6775 31.6467 23.7564 30.3483 24.8358C29.8445 25.1788 29.6615 25.835 29.915 26.3892L30.1108 26.9408L25.1792 25.8575H25.1742C25.0517 25.8316 24.925 25.8333 24.8033 25.8625L19.8892 26.9392Z" fill="white"/>
</g>
<defs>
<clipPath id="clip0_87_69">
<rect width="50" height="50" fill="white"/>
</clipPath>
</defs>
</svg>
