<svg width="50" height="50" viewBox="0 0 50 50" fill="none" xmlns="http://www.w3.org/2000/svg">
<path d="M49.9298 27.8306C49.9297 27.8303 49.9297 27.8302 49.9296 27.8299L40.4894 4.1264C40.289 3.62276 39.7182 3.37689 39.2145 3.57724C39.2142 3.57737 39.2138 3.57749 39.2134 3.57774L0.915752 18.8275C0.759569 18.895 0.62412 19.0027 0.523147 19.1396C0.204646 19.3051 0.0034353 19.6327 0 19.9916V45.5109C0 46.053 0.439473 46.4924 0.981513 46.4924H42.2051C42.7471 46.4924 43.1866 46.053 43.1866 45.5109V31.5734L49.3819 29.1059C49.8854 28.9051 50.1307 28.3341 49.9298 27.8306ZM41.2236 44.5294H1.96303V20.9731H41.2236V44.5294ZM16.3765 19.015L32.811 12.4663C34.2778 14.008 36.3101 14.8843 38.438 14.8926L40.0771 19.015H16.3765ZM43.1866 29.4651V19.9916C43.1866 19.4495 42.7471 19.0101 42.2051 19.0101H42.1894L40.1095 13.7865C40.0865 13.7429 40.0596 13.7014 40.0291 13.6628C39.9238 13.1901 39.486 12.8675 39.0034 12.907C37.0234 13.0875 35.0865 12.2535 33.8573 10.6908C33.5514 10.3132 33.0138 10.2194 32.598 10.4709C32.5514 10.4764 32.5051 10.485 32.4596 10.4964L12.3955 18.4859C12.1527 18.5811 11.9585 18.77 11.8567 19.0101H5.76345L39.0289 5.76455L47.7438 27.6474L43.1866 29.4651Z" fill="white"/>
<path d="M4.62658 37.9032C6.53219 38.4665 8.02335 39.9558 8.58895 41.8607C8.71299 42.2765 9.09541 42.5613 9.52924 42.5615C9.58016 42.5583 9.6307 42.5507 9.68039 42.5389C9.72444 42.5514 9.76947 42.5606 9.81486 42.5664H33.3712C33.4117 42.5611 33.4517 42.5529 33.4909 42.5418C33.9813 42.6611 34.4755 42.3604 34.5949 41.87C34.5952 41.8682 34.5957 41.8664 34.5961 41.8646C35.1602 39.9578 36.6516 38.4663 38.5585 37.9022C39.0209 37.7609 39.3082 37.3001 39.2318 36.8226C39.2449 36.775 39.2544 36.7264 39.2603 36.6773V28.8252C39.2545 28.776 39.2447 28.7274 39.2308 28.6799C39.3077 28.2023 39.0203 27.7412 38.5575 27.6003C36.6507 27.0363 35.1596 25.5442 34.5971 23.6369C34.455 23.1713 33.9897 22.8832 33.5096 22.9636C33.4642 22.951 33.4179 22.9418 33.3712 22.9361H9.81486C9.76542 22.942 9.71646 22.9518 9.66862 22.9656C9.19123 22.8895 8.73066 23.1767 8.58895 23.6389C8.02446 25.5453 6.53317 27.0363 4.62658 27.6003C4.16417 27.7416 3.87683 28.2024 3.95326 28.6799C3.9405 28.7277 3.9313 28.7761 3.92578 28.8252V36.6773C3.93142 36.7234 3.94063 36.7691 3.95326 36.8137C3.87278 37.2943 4.16073 37.7603 4.62658 37.9032ZM5.88881 29.2237C7.85969 28.4321 9.42176 26.87 10.2134 24.8991H32.9717C33.7637 26.87 35.3261 28.4321 37.2972 29.2237V36.2788C35.327 37.0713 33.7651 38.6331 32.9727 40.6034H10.2134C9.42091 38.6331 7.85907 37.0713 5.88881 36.2788V29.2237Z" fill="white"/>
<path d="M21.5942 38.6403C24.8466 38.6403 27.4832 36.0037 27.4832 32.7513C27.4832 29.4988 24.8466 26.8622 21.5942 26.8622C18.3417 26.8622 15.7051 29.4988 15.7051 32.7513C15.7083 36.0024 18.343 38.6371 21.5942 38.6403ZM21.5942 28.8252C23.7624 28.8252 25.5202 30.583 25.5202 32.7513C25.5202 34.9195 23.7624 36.6773 21.5942 36.6773C19.4259 36.6773 17.6681 34.9195 17.6681 32.7513C17.6681 30.583 19.4259 28.8252 21.5942 28.8252Z" fill="white"/>
<path d="M10.7965 34.2235C11.6095 34.2235 12.2688 33.5643 12.2688 32.7513C12.2688 31.9382 11.6095 31.279 10.7965 31.279C9.98343 31.279 9.32422 31.9382 9.32422 32.7513C9.32422 33.5644 9.98343 34.2235 10.7965 34.2235ZM10.7965 32.2605C11.0675 32.2605 11.2872 32.4802 11.2872 32.7513C11.2872 33.0223 11.0675 33.242 10.7965 33.242C10.5255 33.242 10.3057 33.0223 10.3057 32.7513C10.3057 32.4802 10.5255 32.2605 10.7965 32.2605Z" fill="white"/>
<path d="M32.3902 34.2235C33.2033 34.2235 33.8625 33.5643 33.8625 32.7513C33.8625 31.9382 33.2033 31.279 32.3902 31.279C31.5772 31.279 30.918 31.9382 30.918 32.7513C30.918 33.5644 31.5772 34.2235 32.3902 34.2235ZM32.3902 32.2605C32.6613 32.2605 32.881 32.4802 32.881 32.7513C32.881 33.0223 32.6613 33.242 32.3902 33.242C32.1192 33.242 31.8995 33.0223 31.8995 32.7513C31.8995 32.4802 32.1192 32.2605 32.3902 32.2605Z" fill="white"/>
</svg>
