<svg width="15" height="15" viewBox="0 0 15 15" fill="none" xmlns="http://www.w3.org/2000/svg">
<path d="M5.80311 11.4028H2.3755C2.18807 11.4028 2.03613 11.5548 2.03613 11.7422C2.03613 11.9296 2.18807 12.0816 2.3755 12.0816H5.80311C5.99054 12.0816 6.14247 11.9296 6.14247 11.7422C6.14247 11.5548 5.99054 11.4028 5.80311 11.4028Z" fill="#EC383A"/>
<path d="M10.9271 11.4028H7.49952C7.31209 11.4028 7.16016 11.5548 7.16016 11.7422C7.16016 11.9296 7.31209 12.0816 7.49952 12.0816H10.9271C11.1145 12.0816 11.2665 11.9296 11.2665 11.7422C11.2665 11.5548 11.1145 11.4028 10.9271 11.4028Z" fill="#EC383A"/>
<path d="M10.9275 2.91846H2.3755C2.18807 2.91846 2.03613 3.07039 2.03613 3.25782C2.03613 3.44526 2.18807 3.59719 2.3755 3.59719H10.9275C11.1149 3.59719 11.2669 3.44526 11.2669 3.25782C11.2669 3.07039 11.1149 2.91846 10.9275 2.91846Z" fill="#EC383A"/>
<path d="M10.9271 4.61523H7.49952C7.31209 4.61523 7.16016 4.76717 7.16016 4.9546C7.16016 5.14203 7.31209 5.29397 7.49952 5.29397H10.9271C11.1145 5.29397 11.2665 5.14203 11.2665 4.9546C11.2665 4.76717 11.1145 4.61523 10.9271 4.61523Z" fill="#EC383A"/>
<path d="M10.9271 6.31201H7.49952C7.31209 6.31201 7.16016 6.46395 7.16016 6.65138C7.16016 6.83881 7.31209 6.99074 7.49952 6.99074H10.9271C11.1145 6.99074 11.2665 6.83881 11.2665 6.65138C11.2665 6.46395 11.1145 6.31201 10.9271 6.31201Z" fill="#EC383A"/>
<path d="M10.9271 8.00879H7.49952C7.31209 8.00879 7.16016 8.16073 7.16016 8.34816C7.16016 8.5356 7.31209 8.68754 7.49952 8.68754H10.9271C11.1145 8.68754 11.2665 8.5356 11.2665 8.34816C11.2665 8.16073 11.1145 8.00879 10.9271 8.00879Z" fill="#EC383A"/>
<path d="M10.9271 9.70605H7.49952C7.31209 9.70605 7.16016 9.85799 7.16016 10.0454C7.16016 10.2329 7.31209 10.3848 7.49952 10.3848H10.9271C11.1145 10.3848 11.2665 10.2329 11.2665 10.0454C11.2665 9.85799 11.1145 9.70605 10.9271 9.70605Z" fill="#EC383A"/>
<path d="M5.80311 9.70605H2.3755C2.18807 9.70605 2.03613 9.85799 2.03613 10.0454C2.03613 10.2329 2.18807 10.3848 2.3755 10.3848H5.80311C5.99054 10.3848 6.14247 10.2329 6.14247 10.0454C6.14247 9.85799 5.99054 9.70605 5.80311 9.70605Z" fill="#EC383A"/>
<path d="M5.80311 4.61523H2.3755C2.18807 4.61523 2.03613 4.76717 2.03613 4.9546V8.3822C2.03613 8.56963 2.18807 8.72157 2.3755 8.72157H5.80311C5.99054 8.72157 6.14247 8.56963 6.14247 8.3822V4.9546C6.14247 4.76717 5.99054 4.61523 5.80311 4.61523ZM5.46374 8.04284H2.71487V5.29397H5.46374V8.04284Z" fill="#EC383A"/>
<path d="M14.3213 2.57916H13.3032V1.56106C13.3032 1.1868 12.9987 0.882324 12.6244 0.882324H0.678733C0.30448 0.882324 0 1.1868 0 1.56106V12.4208C0 13.3564 0.761199 14.1176 1.69683 14.1176H13.3032C14.2388 14.1176 15 13.3564 15 12.4208V3.25789C15 2.88364 14.6955 2.57916 14.3213 2.57916ZM14.3213 12.4208C14.3213 12.9822 13.8645 13.4389 13.3032 13.4389H1.69683C1.13545 13.4389 0.678733 12.9822 0.678733 12.4208V1.56106H12.6244V11.9117C12.6244 12.3796 13.005 12.7602 13.4729 12.7602C13.6602 12.7602 13.8122 12.6082 13.8122 12.4208C13.8122 12.2334 13.6602 12.0814 13.4729 12.0814C13.3793 12.0814 13.3032 12.0053 13.3032 11.9117V3.25789H14.3213V12.4208Z" fill="#EC383A"/>
</svg>
