<svg width="15" height="15" viewBox="0 0 15 15" fill="none" xmlns="http://www.w3.org/2000/svg">
<g clip-path="url(#clip0_134_1468)">
<path d="M1.30429 2.27148C0.584084 2.27148 0 2.85554 0 3.57627C0 4.29648 0.584084 4.88004 1.30429 4.88004C2.0245 4.88004 2.60859 4.29648 2.60859 3.57627C2.60859 2.85554 2.0245 2.27148 1.30429 2.27148Z" fill="#EC383A"/>
<path d="M1.30429 6.19531C0.584084 6.19531 0 6.77887 0 7.4996C0 8.2198 0.584084 8.80385 1.30429 8.80385C2.0245 8.80385 2.60859 8.2198 2.60859 7.4996C2.60859 6.77887 2.0245 6.19531 1.30429 6.19531Z" fill="#EC383A"/>
<path d="M1.30429 10.1191C0.584084 10.1191 0 10.7032 0 11.4234C0 12.1436 0.584084 12.7277 1.30429 12.7277C2.0245 12.7277 2.60859 12.1436 2.60859 11.4234C2.60859 10.7032 2.0245 10.1191 1.30429 10.1191Z" fill="#EC383A"/>
<path d="M14.0194 2.59521H4.74153C4.19993 2.59521 3.76074 3.0344 3.76074 3.57649C3.76074 4.11812 4.1999 4.55728 4.74153 4.55728H14.0194C14.5609 4.55728 15.0002 4.11812 15.0002 3.57649C15.0002 3.0344 14.5609 2.59521 14.0194 2.59521Z" fill="#EC383A"/>
<path d="M14.0194 6.51904H4.74153C4.19993 6.51904 3.76074 6.9582 3.76074 7.50032C3.76074 8.04195 4.1999 8.48111 4.74153 8.48111H14.0194C14.5609 8.48111 15.0002 8.04195 15.0002 7.50032C15.0002 6.9582 14.5609 6.51904 14.0194 6.51904Z" fill="#EC383A"/>
<path d="M14.0194 10.4429H4.74153C4.19993 10.4429 3.76074 10.882 3.76074 11.4237C3.76074 11.9653 4.1999 12.4044 4.74153 12.4044H14.0194C14.5609 12.4044 15.0002 11.9653 15.0002 11.4237C15.0002 10.882 14.5609 10.4429 14.0194 10.4429Z" fill="#EC383A"/>
</g>
<defs>
<clipPath id="clip0_134_1468">
<rect width="15" height="15" fill="white"/>
</clipPath>
</defs>
</svg>
