<svg width="47" height="44" viewBox="0 0 47 44" fill="none" xmlns="http://www.w3.org/2000/svg">
<path d="M46.085 18.4294L39.55 8.07435L37.325 4.54435L35.25 1.25935C34.8673 0.654191 34.2604 0.225427 33.5621 0.0670319C32.8639 -0.0913628 32.1313 0.033535 31.525 0.41435L4.385 17.5344H2.705C1.98845 17.5344 1.30118 17.8187 0.794042 18.3249C0.286899 18.8311 0.00132448 19.5178 0 20.2344V40.5394C0.00132448 41.2559 0.286899 41.9426 0.794042 42.4488C1.30118 42.9551 1.98845 43.2394 2.705 43.2394H36.205C36.9215 43.2394 37.6088 42.9551 38.116 42.4488C38.6231 41.9426 38.9087 41.2559 38.91 40.5394V26.1494L45.235 22.1494C45.8386 21.7667 46.2665 21.161 46.4257 20.4643C46.5849 19.7676 46.4624 19.0362 46.085 18.4294ZM35.55 4.54435L37.885 8.23935L23.155 17.5344H14.96L35.55 4.54435ZM32.325 1.68435C32.5134 1.56007 32.7343 1.49399 32.96 1.49435C33.1607 1.49695 33.3576 1.55008 33.5323 1.64883C33.7071 1.74758 33.8542 1.88876 33.96 2.05935L34.75 3.27435L12.15 17.5344H7.195L32.325 1.68435ZM37.415 40.5394C37.4137 40.8581 37.2861 41.1633 37.0603 41.3882C36.8345 41.6131 36.5287 41.7394 36.21 41.7394H2.71C2.39128 41.7394 2.08554 41.6131 1.8597 41.3882C1.63386 41.1633 1.50632 40.8581 1.505 40.5394V20.2344C1.505 20.0763 1.5362 19.9199 1.59682 19.774C1.65744 19.6281 1.74628 19.4955 1.85824 19.3841C1.9702 19.2726 2.10308 19.1843 2.24924 19.1243C2.39541 19.0642 2.55199 19.0337 2.71 19.0344H36.21C36.368 19.0337 36.5246 19.0642 36.6707 19.1243C36.8169 19.1843 36.9498 19.2726 37.0618 19.3841C37.1737 19.4955 37.2626 19.6281 37.3232 19.774C37.3838 19.9199 37.415 20.0763 37.415 20.2344V40.5394ZM44.415 20.8894L38.915 24.3894V20.2344C38.9137 19.5178 38.6281 18.8311 38.1209 18.3249C37.6138 17.8187 36.9265 17.5344 36.21 17.5344H25.965L38.685 9.53435L44.815 19.2294C44.985 19.4993 45.0409 19.8257 44.9706 20.1369C44.9003 20.4481 44.7095 20.7187 44.44 20.8894H44.415ZM5.915 30.0344H11.75C12.4228 30.0344 13.0681 29.7674 13.5443 29.2922C14.0205 28.8169 14.2887 28.1721 14.29 27.4994V23.3644C14.2887 22.6911 14.0206 22.0458 13.5446 21.5698C13.0685 21.0937 12.4232 20.8257 11.75 20.8244H5.935C5.26175 20.8257 4.61646 21.0937 4.14041 21.5698C3.66435 22.0458 3.39632 22.6911 3.395 23.3644V27.4994C3.39632 28.1721 3.66451 28.8169 4.14071 29.2922C4.61691 29.7674 5.26221 30.0344 5.935 30.0344H5.915ZM11.73 28.5344H5.935C5.68614 28.5276 5.44805 28.4314 5.26438 28.2633C5.08071 28.0953 4.96377 27.8666 4.935 27.6194H12.775C12.7456 27.8708 12.6251 28.1029 12.4362 28.2715C12.2473 28.4401 12.0032 28.5336 11.75 28.5344H11.73ZM5.935 22.3244H11.75C12.0037 22.3263 12.2478 22.4209 12.4366 22.5904C12.6254 22.7598 12.7457 22.9924 12.775 23.2444H4.91C4.93926 22.9924 5.0596 22.7598 5.24838 22.5904C5.43715 22.4209 5.68134 22.3263 5.935 22.3244ZM4.895 24.7444H12.79V26.1194H4.895V24.7444ZM15.395 34.3044H4.51C4.31109 34.3044 4.12032 34.3834 3.97967 34.524C3.83902 34.6647 3.76 34.8554 3.76 35.0544V38.5044C3.76 38.7033 3.83902 38.894 3.97967 39.0347C4.12032 39.1753 4.31109 39.2544 4.51 39.2544H15.395C15.5939 39.2544 15.7847 39.1753 15.9253 39.0347C16.066 38.894 16.145 38.7033 16.145 38.5044V35.0544C16.145 34.8554 16.066 34.6647 15.9253 34.524C15.7847 34.3834 15.5939 34.3044 15.395 34.3044ZM14.645 37.7544H5.25V35.8044H14.645V37.7544ZM25.82 34.3044H18.32C18.1211 34.3044 17.9303 34.3834 17.7897 34.524C17.649 34.6647 17.57 34.8554 17.57 35.0544V38.5044C17.57 38.7033 17.649 38.894 17.7897 39.0347C17.9303 39.1753 18.1211 39.2544 18.32 39.2544H25.82C26.0189 39.2544 26.2097 39.1753 26.3503 39.0347C26.491 38.894 26.57 38.7033 26.57 38.5044V35.0544C26.57 34.8554 26.491 34.6647 26.3503 34.524C26.2097 34.3834 26.0189 34.3044 25.82 34.3044ZM25.07 37.7544H19.07V35.8044H25.07V37.7544ZM34.41 34.3044H28.72C28.5211 34.3044 28.3303 34.3834 28.1897 34.524C28.049 34.6647 27.97 34.8554 27.97 35.0544V38.5044C27.97 38.7033 28.049 38.894 28.1897 39.0347C28.3303 39.1753 28.5211 39.2544 28.72 39.2544H34.41C34.6089 39.2544 34.7997 39.1753 34.9403 39.0347C35.081 38.894 35.16 38.7033 35.16 38.5044V35.0544C35.16 34.8554 35.081 34.6647 34.9403 34.524C34.7997 34.3834 34.6089 34.3044 34.41 34.3044ZM33.66 37.7544H29.47V35.8044H33.66V37.7544Z" fill="black"/>
</svg>
