<svg width="50" height="50" viewBox="0 0 50 50" fill="none" xmlns="http://www.w3.org/2000/svg">
<g clip-path="url(#clip0_203_63)">
<path d="M49.0829 6.57672C48.9877 6.37734 48.8172 6.22394 48.6089 6.14988L31.3229 0.0475837C30.8892 -0.105818 30.4131 0.122047 30.2597 0.555803L26.3331 11.6666H24.6156V8.83339C24.6156 8.05784 24.2555 7.32623 23.641 6.853C23.0262 6.37978 22.227 6.21865 21.4771 6.41681L1.45394 11.6943V11.7094C1.09098 11.8005 0.835856 12.1256 0.833008 12.5V47.5C0.833008 48.8806 1.95239 50 3.33301 50H26.6663C28.047 50 29.1663 48.8806 29.1663 47.5V39.9385L35.8497 42.2978C36.2839 42.4507 36.7599 42.2233 36.9129 41.7891L49.1187 7.21352C49.192 7.00478 49.179 6.77569 49.0829 6.57672ZM21.9023 8.02407C22.1522 7.95815 22.4191 8.01186 22.6238 8.16933C22.8289 8.32721 22.9489 8.57135 22.9489 8.83014V11.6666H8.09212L21.9023 8.02407ZM27.4997 47.5C27.4997 47.9602 27.1265 48.3333 26.6663 48.3333H3.33301C2.8728 48.3333 2.49967 47.9602 2.49967 47.5V13.3333H26.6663C27.1265 13.3333 27.4997 13.7064 27.4997 14.1666V47.5ZM34.3498 16.5059L35.4163 16.0001L35.9246 17.0634L31.8755 28.5225C31.8022 28.7309 31.8144 28.9599 31.9097 29.1593L32.7772 30.9741L32.509 31.735L30.8562 30.0236C30.6747 29.834 30.4143 29.7416 30.1539 29.7733L29.1663 29.8983V28.7817L29.8772 28.4415C30.0766 28.3463 30.23 28.1758 30.304 27.9675L31.9707 23.2544L34.3498 16.5059ZM35.9213 22.0683L37.6132 24.7868L37.3239 25.6059L35.2996 23.8334L35.9213 22.0683ZM29.1663 26.1824V23.8924L29.9862 23.8582L29.1663 26.1824ZM30.5832 22.1659L29.1663 22.2241V21.1149L31.2065 20.4032L30.5832 22.1659ZM35.6182 40.4484L29.1663 38.171V31.5784L29.9472 31.4807L32.2498 33.8627C32.4077 34.0238 32.6242 34.1138 32.8496 34.1125C32.909 34.1129 32.9684 34.1064 33.0262 34.0934C33.3086 34.032 33.5385 33.8289 33.6345 33.5567L34.4678 31.1991C34.5415 30.9908 34.5293 30.7617 34.4337 30.5627L33.5621 28.75L34.7022 25.5208L37.1506 27.6668C37.3023 27.7999 37.4976 27.8735 37.6999 27.8735C37.7711 27.8735 37.8419 27.8642 37.9106 27.8458C38.178 27.7759 38.3932 27.5781 38.4856 27.3177L39.3189 24.9601C39.4032 24.7213 39.3743 24.4576 39.2404 24.2427L36.6322 20.0525L37.6087 17.2868C37.6824 17.078 37.6702 16.8489 37.5745 16.6491L36.5581 14.5235C36.3595 14.1081 35.8619 13.9323 35.4464 14.1308L33.3196 15.1477C33.1206 15.2429 32.9672 15.4134 32.894 15.6217L31.9162 18.3907L29.1663 19.3502V14.1666C29.1643 13.2995 28.7118 12.4955 27.9713 12.0442L29.3332 8.18235L29.6388 7.31606L31.5557 1.89939L47.2714 7.44667L35.6182 40.4484Z" fill="#EC383A"/>
<path d="M42.1934 12.7226L42.748 11.1508L44.177 11.6549L43.6224 13.2268L42.1934 12.7226Z" fill="#EC383A"/>
<path d="M30.7637 8.6873L31.3187 7.11584L32.7473 7.6204L32.1923 9.19185L30.7637 8.6873Z" fill="#EC383A"/>
<path d="M39.3359 11.7138L39.891 10.142L41.3196 10.6465L40.7646 12.218L39.3359 11.7138Z" fill="#EC383A"/>
<path d="M33.6211 9.69645L34.1761 8.125L35.6043 8.62956L35.0493 10.201L33.6211 9.69645Z" fill="#EC383A"/>
<path d="M36.4785 10.7044L37.0335 9.13293L38.4622 9.63749L37.9071 11.2089L36.4785 10.7044Z" fill="#EC383A"/>
<path d="M14.6156 16.6666C10.0131 16.6666 6.28223 20.3975 6.28223 25C6.28223 29.6024 10.0131 33.3333 14.6156 33.3333C19.218 33.3333 22.9489 29.6024 22.9489 25C22.944 20.3999 19.216 16.6719 14.6156 16.6666ZM20.6332 22.1508L19.4963 21.901C18.9963 21.7907 18.4962 21.7032 17.9912 21.6276C17.9147 21.1226 17.8248 20.6201 17.7174 20.1224L17.4671 18.986C18.8542 19.6464 19.9724 20.7637 20.6332 22.1508ZM7.94889 25C7.95052 24.6594 7.97819 24.3192 8.03231 23.9827L10.0929 23.5241C10.409 23.4541 10.7272 23.396 11.0462 23.341C10.9657 24.4454 10.9657 25.5546 11.0462 26.6593C10.7272 26.6044 10.409 26.5458 10.0929 26.4758L8.03231 26.0176C7.97819 25.6811 7.95052 25.3409 7.94889 25ZM12.7373 23.1225C13.9865 23.011 15.243 23.011 16.4922 23.1225C16.6041 24.3717 16.6041 25.6282 16.4922 26.8774C15.243 26.9893 13.9865 26.9893 12.7373 26.8774C12.6254 25.6282 12.6254 24.3717 12.7373 23.1225ZM18.1812 23.341C18.5006 23.396 18.8188 23.4541 19.1346 23.5241L21.1956 23.9827C21.3111 24.6561 21.3111 25.3442 21.1956 26.0176L19.1346 26.4758C18.8188 26.5458 18.5006 26.6044 18.1812 26.6601C18.2622 25.555 18.2622 24.4458 18.1812 23.341ZM15.6324 18.4167L16.0906 20.4785C16.1606 20.7942 16.2196 21.1124 16.2749 21.4318C15.1698 21.3509 14.0605 21.3509 12.9554 21.4318C13.0107 21.1124 13.0689 20.7942 13.1397 20.4785L13.5979 18.4167C14.2713 18.3024 14.959 18.3024 15.6324 18.4167ZM11.7656 18.9799L11.5154 20.1167C11.4055 20.6168 11.318 21.1169 11.2423 21.6219C10.7374 21.6976 10.2349 21.7883 9.73722 21.8949L8.60034 22.1451C9.26196 20.7592 10.3793 19.6427 11.7656 18.9827V18.9799ZM8.59871 27.8466L9.73559 28.0969C10.2357 28.2067 10.7354 28.2942 11.2407 28.3699C11.3164 28.8749 11.4071 29.3774 11.5138 29.875L11.764 31.0115C10.3769 30.3519 9.25911 29.2354 8.59709 27.8491L8.59871 27.8466ZM13.5987 31.5783L13.1405 29.5166C13.0697 29.2016 13.0116 28.8826 12.9562 28.564C13.508 28.6043 14.0622 28.6316 14.6164 28.6316C15.1706 28.6316 15.7231 28.6043 16.2757 28.564C16.2204 28.8826 16.1614 29.2016 16.0914 29.5166L15.6332 31.5783C14.9598 31.6927 14.2721 31.6927 13.5987 31.5783ZM17.4655 31.0152L17.7157 29.8783C17.8264 29.3782 17.9131 28.8785 17.9896 28.3732C18.4937 28.2975 18.9971 28.2067 19.4947 28.1001L20.6312 27.8499C19.9708 29.2382 18.8526 30.3568 17.4647 31.0176L17.4655 31.0152Z" fill="#EC383A"/>
<path d="M7.94922 40H21.2826V41.6667H7.94922V40Z" fill="#EC383A"/>
<path d="M9.61621 43.3333H19.6162V44.9999H9.61621V43.3333Z" fill="#EC383A"/>
<path d="M13.7822 36.6666H15.4489V38.3333H13.7822V36.6666Z" fill="#EC383A"/>
<path d="M10.4492 36.6666H12.1159V38.3333H10.4492V36.6666Z" fill="#EC383A"/>
<path d="M17.1162 36.6666H18.7829V38.3333H17.1162V36.6666Z" fill="#EC383A"/>
</g>
<defs>
<clipPath id="clip0_203_63">
<rect width="50" height="50" fill="white"/>
</clipPath>
</defs>
</svg>
