<svg width="50" height="50" viewBox="0 0 50 50" fill="none" xmlns="http://www.w3.org/2000/svg">
<path d="M20.3011 30.3575C20.3042 30.3577 20.3071 30.3586 20.3102 30.3587C20.3164 30.3588 20.3226 30.3612 20.3289 30.3612C20.3291 30.3612 20.3294 30.3611 20.3296 30.3611C20.3298 30.3611 20.3301 30.3612 20.3303 30.3612C20.3343 30.3612 20.3382 30.3596 20.3422 30.3596C20.3586 30.3597 20.3744 30.3621 20.3908 30.3621H20.391H20.3911H20.3912C25.3651 30.3621 29.4116 26.3156 29.4116 21.3415C29.4116 16.3674 25.3651 12.3209 20.3912 12.3209C20.3818 12.3209 20.3727 12.3222 20.3634 12.3223C20.3521 12.3217 20.3408 12.3234 20.3295 12.3234C20.3077 12.3235 20.2862 12.3246 20.2646 12.3267C20.2522 12.3279 20.2397 12.3273 20.2273 12.3292C15.3295 12.4178 11.3706 16.4226 11.3706 21.3415C11.3706 26.2851 15.3689 30.3084 20.3011 30.3575ZM13.3745 24.4255H15.424C15.9001 25.9798 16.7313 27.3994 17.8675 28.5754C15.858 27.8719 14.2281 26.3597 13.3745 24.4255ZM28.0602 21.3414C28.0602 21.938 27.985 22.5163 27.8555 23.0741H25.548C25.6427 22.5028 25.6964 21.9192 25.6964 21.3247C25.6964 20.7424 25.6438 20.1702 25.5514 19.6091H27.8557C27.9851 20.1669 28.0602 20.745 28.0602 21.3414ZM24.345 21.3582C24.345 21.9419 24.2891 22.5156 24.1826 23.0742H21.0666V19.6092H24.1797C24.2884 20.1774 24.345 20.7622 24.345 21.3582ZM16.8516 24.4255H19.7153V28.4323C18.3915 27.3747 17.4116 25.9904 16.8516 24.4255ZM21.0666 28.3282V24.4254H23.8112C23.2695 25.9371 22.3301 27.2825 21.0666 28.3282ZM21.0666 18.2579V14.3548C22.3274 15.3986 23.2655 16.7424 23.8078 18.2579H21.0666ZM19.7153 14.2506V18.2579H16.8478C17.4072 16.6966 18.3885 15.3101 19.7153 14.2506ZM19.7153 19.6091V23.0741H16.4794C16.3707 22.5057 16.3141 21.9209 16.3141 21.3247C16.3141 20.7412 16.37 20.1675 16.4764 19.6091H19.7153ZM15.1079 23.0741H12.9267C12.7972 22.5163 12.7219 21.938 12.7219 21.3414C12.7219 20.7449 12.7971 20.1668 12.9266 19.6091H15.1111C15.0166 20.1802 14.9629 20.7637 14.9629 21.3581C14.9629 21.9404 15.0155 22.513 15.1079 23.0741ZM22.7165 28.648C23.887 27.4596 24.7446 26.0161 25.2314 24.4254H27.4076C26.5258 26.4238 24.818 27.9775 22.7165 28.648ZM27.4078 18.2579H25.2352C24.7492 16.6706 23.8905 15.2256 22.7174 14.0351C24.8186 14.7057 26.5262 16.2595 27.4078 18.2579ZM17.8682 14.1073C16.7345 15.2814 15.9043 16.7 15.4275 18.2579H13.3743C14.2279 16.3231 15.8582 14.8106 17.8682 14.1073ZM44.1767 8.87038C43.7138 7.97302 42.9321 7.31101 41.9758 7.00573L20.5975 0.179757C19.6416 -0.126396 18.6206 -0.0392862 17.7233 0.424288C16.8262 0.887081 16.164 1.66872 15.8587 2.62497L14.4398 7.06823H9.17031C7.09101 7.06823 5.39941 8.76003 5.39941 10.8393V46.2294C5.39941 48.3087 7.09101 50 9.17031 50H31.6118C33.6911 50 35.3827 48.3087 35.3827 46.2294V40.0523L44.4211 11.7446C44.7263 10.7887 44.6397 9.76774 44.1767 8.87038ZM34.0313 46.2294C34.0313 47.5635 32.9459 48.6487 31.6118 48.6487H9.17031C7.83613 48.6487 6.75078 47.5635 6.75078 46.2294V10.8393C6.75078 9.50515 7.83623 8.4196 9.17031 8.4196H31.6118C32.946 8.4196 34.0313 9.50524 34.0313 10.8393V46.2294ZM43.134 11.3338L35.3827 35.6103V10.8393C35.3827 8.76003 33.6911 7.06823 31.6118 7.06823H15.858L17.1457 3.03591C17.3412 2.4236 17.7664 1.92253 18.3429 1.62478C18.9191 1.32741 19.5736 1.27155 20.1866 1.46687L41.5649 8.29294C42.1772 8.48864 42.6785 8.91364 42.9759 9.4903C43.2732 10.0665 43.3295 10.7215 43.134 11.3338ZM29.505 35.5856C29.505 35.9587 29.2025 36.2613 28.8293 36.2613H11.9525C11.5793 36.2613 11.2769 35.9587 11.2769 35.5856C11.2769 35.2126 11.5793 34.9099 11.9525 34.9099H28.8294C29.2026 34.9099 29.505 35.2126 29.505 35.5856ZM29.505 40.3551C29.505 40.7282 29.2025 41.0308 28.8293 41.0308H11.9525C11.5793 41.0308 11.2769 40.7282 11.2769 40.3551C11.2769 39.9821 11.5793 39.6795 11.9525 39.6795H28.8294C29.2026 39.6796 29.505 39.9822 29.505 40.3551ZM25.6771 45.1248C25.6771 45.4978 25.3747 45.8004 25.0015 45.8004H15.7805C15.4072 45.8004 15.1048 45.4978 15.1048 45.1248C15.1048 44.7517 15.4072 44.4491 15.7805 44.4491H25.0015C25.3748 44.4491 25.6771 44.7517 25.6771 45.1248Z" fill="black"/>
</svg>
