<svg width="15" height="15" viewBox="0 0 15 15" fill="none" xmlns="http://www.w3.org/2000/svg">
<path d="M11.8611 9.29201C11.5535 8.97226 11.1826 8.80131 10.7894 8.80131C10.3995 8.80131 10.0254 8.9691 9.70514 9.28885L8.70328 10.2861C8.62085 10.2418 8.53841 10.2006 8.45915 10.1595C8.34502 10.1025 8.23722 10.0487 8.14528 9.99167C7.20682 9.39649 6.35397 8.62085 5.53599 7.61728C5.13968 7.11707 4.87336 6.69601 4.67996 6.26862C4.93994 6.03118 5.1809 5.78425 5.41551 5.54681C5.50428 5.45816 5.59306 5.36635 5.68183 5.27771C6.34763 4.61288 6.34763 3.75177 5.68183 3.08694L4.81629 2.22266C4.71801 2.12452 4.61655 2.02321 4.52144 1.92191C4.33121 1.72562 4.13147 1.52301 3.92539 1.33306C3.61786 1.02913 3.25009 0.867676 2.86329 0.867676C2.47649 0.867676 2.10238 1.02913 1.78533 1.33306C1.78216 1.33622 1.78216 1.33622 1.77899 1.33939L0.701036 2.42528C0.295217 2.83051 0.0637733 3.32438 0.013046 3.8974C-0.0630451 4.82183 0.209615 5.68294 0.418865 6.24646C0.93248 7.62994 1.69973 8.91211 2.84427 10.2861C4.23293 11.9418 5.90376 13.2493 7.81238 14.1706C8.54159 14.5157 9.51492 14.9241 10.6024 14.9937C10.669 14.9969 10.7387 15 10.8021 15C11.5345 15 12.1496 14.7373 12.6315 14.2149C12.6347 14.2086 12.641 14.2054 12.6442 14.1991C12.809 13.9996 12.9993 13.8192 13.199 13.6261C13.3353 13.4963 13.4748 13.3601 13.6112 13.2177C13.925 12.8916 14.0899 12.5117 14.0899 12.1223C14.0899 11.7297 13.9219 11.353 13.6016 11.0364L11.8611 9.29201ZM12.9961 12.6257C12.9929 12.6257 12.9929 12.6288 12.9961 12.6257C12.8724 12.7586 12.7456 12.8789 12.6093 13.0119C12.4032 13.2082 12.194 13.414 11.9974 13.6451C11.6772 13.987 11.2999 14.1484 10.8053 14.1484C10.7577 14.1484 10.707 14.1484 10.6595 14.1453C9.71783 14.0851 8.84278 13.7179 8.18649 13.4045C6.39201 12.537 4.81629 11.3055 3.50689 9.74473C2.42577 8.44356 1.7029 7.24054 1.22416 5.94887C0.929309 5.16057 0.821514 4.5464 0.86907 3.96705C0.900775 3.59664 1.04345 3.28955 1.30659 3.02679L2.38772 1.94723C2.54307 1.8016 2.70794 1.72246 2.86963 1.72246C3.06937 1.72246 3.23106 1.84276 3.33252 1.94407C3.33569 1.94723 3.33886 1.9504 3.34203 1.95356C3.53543 2.13402 3.71931 2.3208 3.91271 2.52025C4.011 2.62156 4.11245 2.72287 4.21391 2.82734L5.07944 3.69162C5.41551 4.0272 5.41551 4.33745 5.07944 4.67303C4.9875 4.76484 4.89873 4.85665 4.80678 4.94529C4.54046 5.21756 4.28683 5.47083 4.011 5.71776C4.00466 5.7241 3.99832 5.72726 3.99514 5.73359C3.72249 6.00586 3.77321 6.27179 3.83028 6.45224C3.83345 6.46174 3.83662 6.47124 3.83979 6.48073C4.0649 7.02526 4.38194 7.53813 4.86385 8.14914L4.86702 8.15231C5.74207 9.2287 6.66467 10.0676 7.68239 10.7103C7.81238 10.7926 7.94554 10.8591 8.07236 10.9224C8.18649 10.9794 8.29429 11.0332 8.38623 11.0902C8.39891 11.0965 8.4116 11.106 8.42428 11.1124C8.53207 11.1662 8.63353 11.1915 8.73815 11.1915C9.0013 11.1915 9.16617 11.0269 9.22006 10.9731L10.3044 9.89036C10.4122 9.78272 10.5834 9.65292 10.7831 9.65292C10.9797 9.65292 11.1414 9.77639 11.2396 9.88403C11.2428 9.88719 11.2428 9.88719 11.246 9.89036L12.9929 11.6347C13.3195 11.9577 13.3195 12.2901 12.9961 12.6257Z" fill="#0D47A1"/>
<path d="M8.10719 3.56805C8.93785 3.70735 9.69242 4.09992 10.2948 4.70143C10.8972 5.30294 11.2872 6.05642 11.4298 6.88587C11.4647 7.09482 11.6454 7.24044 11.8515 7.24044C11.8769 7.24044 11.8991 7.23728 11.9244 7.23411C12.159 7.19612 12.3144 6.97451 12.2763 6.74024C12.1051 5.73666 11.6296 4.82173 10.9035 4.09675C10.1775 3.37177 9.26124 2.89689 8.2562 2.72594C8.02159 2.68795 7.80283 2.84307 7.76161 3.07418C7.7204 3.30529 7.87258 3.53006 8.10719 3.56805Z" fill="#0D47A1"/>
<path d="M14.993 6.61682C14.7109 4.96424 13.9309 3.46046 12.7325 2.26377C11.5341 1.06708 10.0281 0.288277 8.37312 0.0065158C8.14168 -0.0346403 7.92292 0.123652 7.8817 0.35476C7.84366 0.589033 7.99901 0.807477 8.23362 0.848633C9.71106 1.09874 11.0585 1.79839 12.1301 2.86528C13.2017 3.93534 13.8992 5.28083 14.1497 6.75612C14.1846 6.96507 14.3653 7.1107 14.5714 7.1107C14.5967 7.1107 14.6189 7.10753 14.6443 7.10436C14.8757 7.06954 15.0343 6.84793 14.993 6.61682Z" fill="#0D47A1"/>
</svg>
