<svg width="50" height="50" viewBox="0 0 50 50" fill="none" xmlns="http://www.w3.org/2000/svg">
<path d="M48.5443 8.8871C48.5413 8.8871 48.5382 8.88672 48.5352 8.88672H35.2539V7.42188C35.2539 4.99878 33.2825 3.02734 30.8594 3.02734H19.1406C16.7175 3.02734 14.7461 4.99878 14.7461 7.42188V8.88672H1.46484C0.649262 8.88672 0 9.55505 0 10.3516V42.5781C0 45.0012 1.97144 46.9727 4.39453 46.9727H45.6055C48.0286 46.9727 50 45.0012 50 42.5781V10.3825C50 10.3806 50 10.3786 50 10.3767C49.9439 9.41467 49.3523 8.89244 48.5443 8.8871ZM17.6758 7.42188C17.6758 6.6143 18.3331 5.95703 19.1406 5.95703H30.8594C31.6669 5.95703 32.3242 6.6143 32.3242 7.42188V8.88672H17.6758V7.42188ZM46.5027 11.8164L41.9537 25.4631C41.7542 26.0624 41.1957 26.4648 40.5643 26.4648H32.3242V25C32.3242 24.1909 31.6685 23.5352 30.8594 23.5352H19.1406C18.3315 23.5352 17.6758 24.1909 17.6758 25V26.4648H9.43565C8.80432 26.4648 8.24585 26.0624 8.04634 25.4631L3.49731 11.8164H46.5027ZM29.3945 26.4648V29.3945H20.6055V26.4648H29.3945ZM47.0703 42.5781C47.0703 43.3857 46.413 44.043 45.6055 44.043H4.39453C3.58696 44.043 2.92969 43.3857 2.92969 42.5781V19.3783L5.26695 26.3897C5.86586 28.1872 7.54128 29.3945 9.43565 29.3945H17.6758V30.8594C17.6758 31.6685 18.3315 32.3242 19.1406 32.3242H30.8594C31.6685 32.3242 32.3242 31.6685 32.3242 30.8594V29.3945H40.5643C42.4587 29.3945 44.1341 28.1872 44.733 26.3897L47.0703 19.3783V42.5781Z" fill="#0D47A1"/>
</svg>
