<svg width="15" height="15" viewBox="0 0 15 15" fill="none" xmlns="http://www.w3.org/2000/svg">
<g clip-path="url(#clip0_40_64)">
<path d="M6.03752 12.069C7.37824 12.069 8.68061 11.6217 9.73834 10.7978L13.7288 14.7883C14.0269 15.0762 14.5019 15.0679 14.7898 14.7698C15.0707 14.479 15.0707 14.018 14.7898 13.7273L10.7994 9.7368C12.8437 7.10521 12.3676 3.31465 9.73604 1.27033C7.10445 -0.773983 3.31392 -0.297933 1.2696 2.33366C-0.774716 4.96524 -0.298665 8.7558 2.33292 10.8001C3.39238 11.6232 4.69592 12.0696 6.03752 12.069ZM2.8312 2.82963C4.60202 1.05878 7.47308 1.05875 9.24393 2.82956C11.0148 4.60038 11.0148 7.47144 9.24399 9.24229C7.47318 11.0131 4.60212 11.0132 2.83127 9.24235C2.83124 9.24232 2.83124 9.24232 2.8312 9.24229C1.06039 7.48438 1.04996 4.62378 2.80787 2.85297C2.81564 2.84517 2.8234 2.8374 2.8312 2.82963Z" fill="white"/>
</g>
<defs>
<clipPath id="clip0_40_64">
<rect width="15" height="15" fill="white"/>
</clipPath>
</defs>
</svg>
