<svg width="15" height="15" viewBox="0 0 15 15" fill="none" xmlns="http://www.w3.org/2000/svg">
<g clip-path="url(#clip0_78_2438)">
<path d="M14.598 10.7383L11.2434 7.38289C11.8728 5.9539 11.6035 4.22123 10.4349 3.05238C8.91244 1.52952 6.44802 1.52931 4.92533 3.05238C3.4064 4.57167 3.4064 7.04373 4.92533 8.56302C6.13236 9.77031 7.90127 10.0002 9.31341 9.34736L12.6509 12.6856C13.189 13.2238 14.06 13.2239 14.5981 12.6855C15.1348 12.1486 15.1347 11.2752 14.598 10.7383ZM5.5469 7.94157C4.37054 6.76496 4.37054 4.85047 5.5469 3.67382C6.72585 2.49457 8.63419 2.49437 9.81336 3.67382C10.9897 4.85047 10.9897 6.76496 9.81336 7.94157C8.63437 9.12086 6.72603 9.12103 5.5469 7.94157ZM13.9765 12.0642C13.7819 12.2588 13.467 12.2589 13.2724 12.0642L10.0838 8.87478C10.3459 8.66846 10.5795 8.43156 10.7823 8.16488L13.9764 11.3597C14.1706 11.554 14.1706 11.8699 13.9765 12.0642Z" fill="#EC383A"/>
<path d="M0.439473 7.17631H2.31344C2.55615 7.17631 2.75292 6.97954 2.75292 6.73684C2.75292 6.49413 2.55615 6.29736 2.31344 6.29736H0.439473C0.196767 6.29736 0 6.49413 0 6.73684C0 6.97954 0.196767 7.17631 0.439473 7.17631Z" fill="#EC383A"/>
<path d="M0.439473 9.05131H3.01619C3.2589 9.05131 3.45566 8.85454 3.45566 8.61184C3.45566 8.36913 3.2589 8.17236 3.01619 8.17236H0.439473C0.196767 8.17236 0 8.36913 0 8.61184C0 8.85454 0.196767 9.05131 0.439473 9.05131Z" fill="#EC383A"/>
<path d="M0.439473 10.9263H4.89019C5.1329 10.9263 5.32966 10.7295 5.32966 10.4868C5.32966 10.2441 5.1329 10.0474 4.89019 10.0474H0.439473C0.196767 10.0474 0 10.2441 0 10.4868C0 10.7295 0.196767 10.9263 0.439473 10.9263Z" fill="#EC383A"/>
<path d="M10.0437 11.9229H0.439473C0.196767 11.9229 0 12.1196 0 12.3623C0 12.605 0.196767 12.8018 0.439473 12.8018H10.0437C10.2864 12.8018 10.4832 12.605 10.4832 12.3623C10.4832 12.1196 10.2864 11.9229 10.0437 11.9229Z" fill="#EC383A"/>
</g>
<defs>
<clipPath id="clip0_78_2438">
<rect width="15" height="15" fill="white"/>
</clipPath>
</defs>
</svg>
