<svg width="50" height="50" viewBox="0 0 50 50" fill="none" xmlns="http://www.w3.org/2000/svg">
<g clip-path="url(#clip0_77_95)">
<path d="M49.9414 3.73261C49.8331 1.74647 48.2535 0.167078 46.2674 0.0586794C42.2598 -0.160266 34.4176 0.0527225 26.9188 3.93134C23.096 5.90868 19.053 9.26112 15.8266 13.1291C15.7868 13.1767 15.7482 13.2247 15.7087 13.2725L8.38645 13.8381C7.18118 13.9312 6.10764 14.563 5.44104 15.5712L0.445532 23.127C-0.0600342 23.8917 -0.140405 24.8486 0.230395 25.6868C0.601294 26.5251 1.3634 27.1093 2.26916 27.2496L8.43821 28.2051C8.41643 28.325 8.39455 28.4448 8.37453 28.5647C8.16916 29.7933 8.57619 31.0563 9.4635 31.9435L18.0565 40.5366C18.7921 41.2723 19.7862 41.6778 20.8047 41.6778C21.0145 41.6778 21.2254 41.6605 21.4354 41.6255C21.5553 41.6055 21.6751 41.5836 21.795 41.5618L22.7505 47.731C22.8908 48.6367 23.475 49.3989 24.3131 49.7697C24.6618 49.924 25.0309 50.0002 25.3983 50.0002C25.9142 50.0001 26.4265 49.8499 26.873 49.5547L34.4288 44.5591C35.4371 43.8924 36.0688 42.8188 36.1617 41.6137L36.7274 34.2915C36.7751 34.252 36.8232 34.2134 36.8708 34.1736C40.7389 30.9472 44.0914 26.9042 46.0687 23.0813C49.9475 15.5822 50.1601 7.73993 49.9414 3.73261V3.73261ZM32.8131 42.1151L25.5855 46.8937L24.6542 40.8815C27.7089 39.9834 30.7307 38.5449 33.6095 36.6179L33.241 41.3879C33.2181 41.6854 33.062 41.9506 32.8131 42.1151V42.1151ZM20.128 38.465L11.535 29.872C11.3157 29.6526 11.2144 29.3445 11.2641 29.0477C11.5196 27.5201 11.9165 26.0659 12.4079 24.696L25.3013 37.5893C23.656 38.1787 22.1822 38.5303 20.9523 38.7359C20.655 38.7853 20.3473 38.6843 20.128 38.465V38.465ZM8.61213 16.7591L13.3821 16.3906C11.4549 19.2694 10.0164 22.2912 9.11829 25.3459L3.10618 24.4147L7.88489 17.187C8.04953 16.938 8.31467 16.782 8.61213 16.7591V16.7591ZM34.9945 31.9237C32.6279 33.8976 30.3308 35.3254 28.2134 36.3585L13.641 21.7861C14.9944 19.0221 16.646 16.7204 18.0763 15.0058C21.0621 11.4262 24.7757 8.33817 28.2649 6.53348C35.1471 2.97362 42.3982 2.78192 46.1079 2.98387C46.5989 3.01063 46.9895 3.40116 47.0162 3.89227C47.2185 7.60204 47.0264 14.853 43.4665 21.7353C41.6619 25.2244 38.5739 28.9379 34.9945 31.9237Z" fill="black"/>
<path d="M34.2503 23.0706C36.1255 23.0704 38.0015 22.3566 39.4291 20.9289C40.8125 19.5456 41.5742 17.7064 41.5742 15.7501C41.5742 13.7939 40.8124 11.9546 39.4291 10.5713C36.5734 7.71555 31.927 7.71575 29.0715 10.5713C27.6881 11.9546 26.9263 13.7939 26.9263 15.7501C26.9263 17.7064 27.6882 19.5456 29.0715 20.9289C30.4994 22.3569 32.3744 23.0708 34.2503 23.0706ZM31.1429 12.6428C31.9995 11.7861 33.1248 11.3577 34.2501 11.3577C35.3755 11.3577 36.5008 11.7861 37.3574 12.6428C38.1874 13.4728 38.6444 14.5763 38.6444 15.75C38.6444 16.9238 38.1874 18.0274 37.3574 18.8573C35.6441 20.5707 32.8562 20.5706 31.1428 18.8573C30.3128 18.0274 29.8557 16.9239 29.8557 15.7501C29.8557 14.5764 30.3129 13.4728 31.1429 12.6428Z" fill="black"/>
<path d="M1.49409 41.2049C1.86899 41.2049 2.2439 41.0619 2.52983 40.7758L7.31236 35.9933C7.88443 35.4212 7.88443 34.4937 7.31236 33.9217C6.74038 33.3496 5.81284 33.3496 5.24077 33.9217L0.45835 38.7042C-0.113721 39.2763 -0.113721 40.2037 0.45835 40.7758C0.744287 41.0618 1.11919 41.2049 1.49409 41.2049V41.2049Z" fill="black"/>
<path d="M11.6954 38.3046C11.1234 37.7325 10.1958 37.7325 9.62378 38.3046L0.429053 47.4994C-0.143018 48.0715 -0.143018 48.9989 0.429053 49.571C0.715088 49.857 1.08989 50 1.46479 50C1.8397 50 2.2146 49.857 2.50054 49.5709L11.6953 40.3762C12.2674 39.8041 12.2674 38.8767 11.6954 38.3046V38.3046Z" fill="black"/>
<path d="M14.0065 42.6875L9.22397 47.47C8.6519 48.0421 8.6519 48.9695 9.22397 49.5416C9.51001 49.8276 9.88491 49.9707 10.2597 49.9707C10.6345 49.9707 11.0095 49.8277 11.2955 49.5416L16.078 44.7591C16.65 44.187 16.65 43.2595 16.078 42.6875C15.506 42.1154 14.5785 42.1154 14.0065 42.6875Z" fill="black"/>
</g>
<defs>
<clipPath id="clip0_77_95">
<rect width="50" height="50" fill="white"/>
</clipPath>
</defs>
</svg>
