<svg width="50" height="50" viewBox="0 0 50 50" fill="none" xmlns="http://www.w3.org/2000/svg">
<g clip-path="url(#clip0_77_143)">
<path d="M25.8603 1.72078C21.9977 1.72078 18.1899 2.65139 14.7774 4.41999L10.7873 0.429651C10.4344 0.0765558 9.92589 -0.0726614 9.43815 0.0335312C8.95041 0.139724 8.55008 0.486757 8.37573 0.954552L6.36081 6.36089L0.954574 8.37572C0.486779 8.55006 0.139746 8.95039 0.0335536 9.43813C-0.0725412 9.92587 0.0765782 10.4342 0.429673 10.7872L4.41991 14.7776C2.65131 18.19 1.72071 21.9978 1.72071 25.8603C1.72071 39.171 12.5496 50 25.8603 50C39.1709 50 50 39.171 50 25.8603C50 12.5497 39.1709 1.72078 25.8603 1.72078ZM25.8603 33.805C30.241 33.805 33.805 30.2411 33.805 25.8603C33.805 21.4796 30.241 17.9156 25.8603 17.9156C24.1987 17.9156 22.6554 18.4292 21.3788 19.3047L17.6908 15.6166C19.933 13.8248 22.7735 12.7516 25.8603 12.7516C33.0884 12.7516 38.969 18.6322 38.969 25.8603C38.969 33.0885 33.0884 38.9691 25.8603 38.9691C18.6321 38.9691 12.7516 33.0885 12.7516 25.8603C12.7516 22.7736 13.8247 19.9331 15.6165 17.6908L19.3046 21.3789C18.4291 22.6555 17.9156 24.1988 17.9156 25.8603C17.9156 30.241 21.4796 33.805 25.8603 33.805ZM26.8974 24.8232L23.5102 21.4359C24.2116 21.0619 25.0115 20.849 25.8603 20.849C28.6235 20.849 30.8715 23.0971 30.8715 25.8602C30.8715 28.6234 28.6235 30.8714 25.8603 30.8714C23.0971 30.8714 20.8491 28.6234 20.8491 25.8602C20.8491 25.0114 21.0619 24.2117 21.436 23.5102L24.8232 26.8974C25.1096 27.1838 25.485 27.327 25.8603 27.327C26.2356 27.327 26.611 27.1837 26.8973 26.8974C27.4703 26.3247 27.4703 25.396 26.8974 24.8232ZM10.3273 4.11823L15.263 9.05404L14.6285 12.5542L9.20464 7.13045L10.3273 4.11823ZM4.11825 10.3273L7.13047 9.20472L12.5543 14.6285L9.05406 15.2631L4.11825 10.3273ZM25.8603 47.0665C14.1672 47.0665 4.6542 37.5535 4.6542 25.8603C4.6542 22.7822 5.32715 19.7443 6.61192 16.9695L7.52277 17.8803C7.80028 18.158 8.1744 18.31 8.55986 18.31C8.64679 18.31 8.73431 18.3023 8.82153 18.2865L12.0538 17.7006C10.6345 20.0929 9.81823 22.8828 9.81823 25.8603C9.81823 34.706 17.0147 41.9026 25.8604 41.9026C34.706 41.9026 41.9026 34.706 41.9026 25.8603C41.9026 17.0147 34.706 9.81812 25.8604 9.81812C22.8829 9.81812 20.0929 10.6345 17.7006 12.0537L18.2866 8.82151C18.3723 8.34824 18.2205 7.86284 17.8805 7.52275L16.9696 6.6119C19.7443 5.32713 22.7822 4.65418 25.8605 4.65418C37.5536 4.65418 47.0666 14.1672 47.0666 25.8602C47.0665 37.5535 37.5534 47.0665 25.8603 47.0665Z" fill="black"/>
</g>
<defs>
<clipPath id="clip0_77_143">
<rect width="50" height="50" fill="white"/>
</clipPath>
</defs>
</svg>
