<svg width="50" height="50" viewBox="0 0 50 50" fill="none" xmlns="http://www.w3.org/2000/svg">
<g clip-path="url(#clip0_132_361)">
<path d="M44.0809 34.5134C45.5398 33.4068 46.4844 31.6556 46.4844 29.6874C46.4844 26.3488 43.7683 23.6327 40.4297 23.6327C37.0911 23.6327 34.375 26.3488 34.375 29.6874C34.375 31.655 35.3189 33.4057 36.7771 34.5123C35.5671 35.0117 34.466 35.7573 33.546 36.7115C32.5145 34.6721 30.7743 33.0498 28.6512 32.1702C30.1102 31.0637 31.0547 29.3124 31.0547 27.3442C31.0547 24.0057 28.3386 21.2896 25 21.2896C21.6614 21.2896 18.9453 24.0057 18.9453 27.3442C18.9453 29.3124 19.8898 31.0637 21.3488 32.1702C19.2257 33.0498 17.4855 34.6721 16.454 36.7115C15.534 35.7572 14.4329 35.0117 13.2229 34.5123C14.6811 33.4057 15.625 31.655 15.625 29.6874C15.625 26.3488 12.9089 23.6327 9.57031 23.6327C6.23174 23.6327 3.51562 26.3488 3.51562 29.6874C3.51562 31.6556 4.46016 33.4068 5.91914 34.5134C2.44814 35.9514 0 39.3746 0 43.3593V49.0234C0 49.5626 0.437207 49.9999 0.976562 49.9999H16.4062H33.5938H49.0234C49.5628 49.9999 50 49.5626 50 49.0234V43.3593C50 39.3746 47.5519 35.9514 44.0809 34.5134ZM5.46875 29.6874C5.46875 27.4258 7.30869 25.5858 9.57031 25.5858C11.8319 25.5858 13.6719 27.4258 13.6719 29.6874C13.6719 31.949 11.8319 33.789 9.57031 33.789C7.30869 33.789 5.46875 31.949 5.46875 29.6874ZM15.4297 41.0161V48.0468H1.95312V43.3593C1.95312 39.1591 5.37021 35.7421 9.57031 35.7421C11.9929 35.7421 14.2478 36.885 15.6846 38.8191C15.5182 39.5249 15.4297 40.2604 15.4297 41.0161ZM20.8984 27.3442C20.8984 25.0826 22.7384 23.2427 25 23.2427C27.2616 23.2427 29.1016 25.0826 29.1016 27.3442C29.1016 29.6059 27.2616 31.4458 25 31.4458C22.7384 31.4458 20.8984 29.6059 20.8984 27.3442ZM32.6172 48.0468H30.6804V44.968C30.6804 44.4287 30.2432 43.9914 29.7038 43.9914C29.1645 43.9914 28.7272 44.4287 28.7272 44.968V48.0468H17.3828V41.0161C17.3828 36.8159 20.7999 33.3989 25 33.3989C29.2001 33.3989 32.6172 36.8159 32.6172 41.0161V48.0468ZM36.3281 29.6874C36.3281 27.4258 38.1681 25.5858 40.4297 25.5858C42.6913 25.5858 44.5312 27.4258 44.5312 29.6874C44.5312 31.949 42.6913 33.789 40.4297 33.789C38.1681 33.789 36.3281 31.949 36.3281 29.6874ZM48.0469 48.0468H34.5703V41.0161C34.5703 40.2604 34.4818 39.5249 34.3154 38.8191C35.7522 36.885 38.0071 35.7421 40.4297 35.7421C44.6298 35.7421 48.0469 39.1591 48.0469 43.3593V48.0468Z" fill="#0D47A1"/>
<path d="M34.6754 3.00797C34.294 2.62653 33.6757 2.62662 33.2942 3.00797L29.9432 6.35895C29.5619 6.74029 29.5619 7.35865 29.9432 7.7401C30.134 7.93073 30.3839 8.02613 30.6339 8.02613C30.8838 8.02613 31.1338 7.93082 31.3244 7.7401L34.6754 4.38912C35.0567 4.00778 35.0567 3.38942 34.6754 3.00797Z" fill="#0D47A1"/>
<path d="M20.0572 6.35891L16.7063 3.00793C16.3249 2.62659 15.7066 2.62659 15.3251 3.00793C14.9437 3.38928 14.9438 4.00764 15.3251 4.38909L18.6762 7.74006C18.8669 7.93078 19.1168 8.0261 19.3667 8.0261C19.6166 8.0261 19.8666 7.93078 20.0572 7.74006C20.4386 7.35871 20.4386 6.74035 20.0572 6.35891Z" fill="#0D47A1"/>
<path d="M25 0C24.4606 0 24.0234 0.437207 24.0234 0.976563V3.0749C24.0234 3.61426 24.4606 4.05147 25 4.05147C25.5394 4.05147 25.9766 3.61426 25.9766 3.0749V0.976563C25.9766 0.437207 25.5394 0 25 0Z" fill="#0D47A1"/>
<path d="M32.5881 11.0308C32.4172 10.5047 31.9709 10.1286 31.4236 10.0491L27.8787 9.53398L26.2934 6.32168C26.0485 5.82568 25.5529 5.51758 24.9998 5.51758C24.4467 5.51758 23.9511 5.82568 23.7063 6.32168L22.1209 9.53398L18.5761 10.0491C18.0287 10.1286 17.5825 10.5048 17.4115 11.0308C17.2406 11.5567 17.3804 12.1233 17.7765 12.5095L20.3417 15.0099L19.7361 18.5404C19.6426 19.0855 19.8624 19.6262 20.3099 19.9514C20.5627 20.1351 20.8586 20.2284 21.1564 20.2284C21.3857 20.2284 21.6161 20.1731 21.829 20.0612L24.9998 18.3942L28.1705 20.0611C28.6601 20.3186 29.2422 20.2765 29.6898 19.9514C30.1372 19.6262 30.357 19.0855 30.2635 18.5405L29.6579 15.0099L32.2232 12.5095C32.6192 12.1233 32.759 11.5567 32.5881 11.0308ZM28.1024 13.7987C27.7624 14.1302 27.6073 14.6073 27.6875 15.0755L28.1636 17.851L25.6711 16.5406C25.4609 16.4301 25.2304 16.3749 24.9998 16.3749C24.7692 16.3749 24.5387 16.4301 24.3285 16.5406L21.836 17.851L22.3121 15.0754C22.3923 14.6074 22.2372 14.1302 21.8972 13.7987L19.8807 11.8332L22.6673 11.4282C23.1374 11.36 23.5435 11.0649 23.7535 10.6391L24.9998 8.11387L26.3545 10.8587C26.4967 11.1468 26.7715 11.3465 27.0894 11.3929L30.1189 11.8331L28.1024 13.7987Z" fill="#0D47A1"/>
<path d="M30.3945 40.4746C30.2119 40.293 29.9609 40.1895 29.7041 40.1895C29.4463 40.1895 29.1953 40.293 29.0137 40.4746C28.8311 40.6572 28.7275 40.9081 28.7275 41.166C28.7275 41.4229 28.8311 41.6748 29.0137 41.8563C29.1953 42.0381 29.4463 42.1426 29.7041 42.1426C29.9609 42.1426 30.2119 42.0381 30.3945 41.8563C30.5762 41.6738 30.6807 41.4229 30.6807 41.166C30.6807 40.9092 30.5762 40.6572 30.3945 40.4746Z" fill="#0D47A1"/>
</g>
<defs>
<clipPath id="clip0_132_361">
<rect width="50" height="50" fill="white"/>
</clipPath>
</defs>
</svg>
